<svg width="470" height="575" viewBox="0 0 470 575" fill="none" xmlns="http://www.w3.org/2000/svg">
<path d="M261.506 38.6526C267.807 28.6023 291.577 -7.98324 307.859 1.57866C315.691 6.17806 321.041 30.5108 322.763 40.252C324.143 47.8589 324.919 55.563 325.084 63.2923C325.525 78.9095 326.242 84.6105 333.796 99.4865C337.14 106.072 342.055 121.868 347.797 127.79C363.474 135.859 364.401 156.862 355.793 171.893C373.558 193.818 384.636 244.115 390.158 271.758C394.573 293.859 400.688 325.131 398.339 347.464C397.549 354.843 395.974 362.117 393.642 369.162C412.434 363.89 435.708 354.852 450.761 342.54C454.651 339.359 464.459 328.127 465.969 327.118C467.659 329.008 468.449 338.884 468.709 341.693C471.309 370.126 466.349 405.183 436.082 416.572C435.109 421.693 433.039 424.43 428.548 427.266C407.508 440.554 380.08 441.966 360.909 424.524C359.065 445.292 360.287 466.253 360.392 487.076C360.258 493.665 358.676 499.979 358.549 506.592C358.129 528.634 363.972 551.28 344.309 566.99C333.089 575.955 323.257 574.477 309.739 574.471L280.283 574.435C275.388 574.432 270.343 574.446 265.45 574.472C248.373 574.564 237.015 576.869 231.327 557.052C214.384 573 205.464 570.708 183.05 570.853C167.335 570.956 151.431 571.089 135.699 571.135C108.516 571.501 105.35 539.416 122.899 524.804C131.699 517.496 140.097 514.854 151.289 514.227C151.232 507.457 153.012 495.761 152.37 490.39C150.423 474.109 150.208 461.462 153.011 445.175C153.767 440.782 151.896 431.7 152.342 426.909C152.354 419.533 153.107 412.261 153.863 404.934C141.128 398.599 132.465 392.621 127.365 378.323C124.279 369.672 123.493 353.921 123.939 344.584C101.722 349.637 80.5023 348.383 60.1323 336.586C58.0733 335.393 56.0643 333.712 54.0423 332.514C45.2233 332.118 34.5533 331.615 26.4923 327.885C19.1193 324.473 15.4023 317 11.2783 310.525C9.17933 307.302 5.87931 304.35 3.84431 300.946C2.92431 299.377 2.19636 297.703 1.67536 295.96C0.908363 293.318 0.455364 290.595 0.326364 287.847C-0.382636 275.198 0.276331 256.693 0.330331 243.376C0.384331 229.977 -0.358692 209.499 0.594308 196.654L0.647348 195.989C13.4463 177.346 84.4973 179.52 104.421 187.058C121.988 193.703 120.044 196.95 120.215 212.24C124.733 212.291 133.146 213.426 136.007 210.824L136.43 211.661L136.657 212.444C140.668 213.339 144.253 213.644 147.978 215.602C157.347 220.528 159.133 228.962 159.865 238.537L160.4 238.754C167.688 230.886 171.459 223.07 173.467 212.632C166.373 206.295 157.502 202.979 152.964 192.253L152.526 191.246C150.82 185.468 151.381 180.538 152.767 174.79C145.482 163.259 137.174 153.347 134.712 139.282C133.132 130.255 134.611 125.293 129.817 116.973C127.909 113.659 128.156 104.045 129.073 100.028C130.998 91.8205 136.09 84.7065 143.239 80.2365C147.314 77.7115 150.195 76.9385 154.671 75.4485C150.283 56.5692 149.676 40.4297 150.049 21.2392C150.84 -19.493 196.74 27.0691 207.325 38.5892C223.281 35.3286 245.393 35.5707 261.506 38.6526ZM239.341 529.813C245.302 524.761 247.461 522.682 254.553 519.222C258.697 517.866 261.269 517.026 265.714 516.828C264.829 503.647 266.078 493.065 267.668 480.054C268.17 475.94 266.193 469.135 266.497 464.961C267.581 450.097 266.645 436.323 266.102 421.543C257.601 421.518 249.153 421.709 240.658 421.458C239.016 428.338 241.018 443.175 240.916 450.826C240.759 458.4 239.689 465.897 239.285 473.46C238.991 478.978 240.598 485.361 240.247 490.744C239.388 503.915 239.237 516.613 239.341 529.813Z" fill="#010101"/>
<path d="M354.873 173.913C376.481 202.039 387.393 262.246 393.553 297.143C397.697 322.01 401.071 349.768 389.746 373.07C378.528 394.325 365.244 399.424 343.013 406.283C331.817 409.65 320.449 412.411 308.956 414.553C290.409 417.575 271.988 420.138 253.179 419.97C244.681 419.894 235.218 420.284 226.783 419.263C205.821 416.396 189.813 414.939 169.191 408.299C141.285 399.313 126.785 390.166 125.596 358.361C149.85 354.51 160.01 338.018 158.718 314.527C165.497 317.478 172.381 320.182 179.357 322.634C184.153 324.354 191.582 326.722 195.956 328.92C197.072 344.432 207.284 347.561 220.87 350.063C225.816 350.974 230.027 351.375 234.684 349.079C311.623 395.528 387.028 344.743 380.43 257.179C380.292 256.769 380.154 256.359 380.016 255.95L379.492 255.877C378.515 258.698 378.67 274.908 378.227 279.481C374.341 319.586 353.239 350.231 314.034 362.01C287.683 367.094 267.875 365.301 243.812 352.298C240.637 350.63 238.657 349.141 235.75 347.046C242.587 327.447 253.053 308.988 255.469 288.134C256.314 280.843 256.037 272.646 255.877 265.27C270.032 265.517 282.451 267.392 297.286 266.81C300.032 261.394 309.182 248.659 306.936 242.521C305.778 243.714 303.869 250.939 302.728 253.168C300.506 257.507 298.713 260.969 295.521 264.801C282.063 264.987 268.961 263.952 255.53 263.158C253.635 252.33 243.052 250.876 233.561 251.376C228.483 251.644 224.756 253.956 220.957 257.094C202.331 252.755 185.21 245.062 166.904 239.884C165.48 239.481 164.194 239.896 162.858 240.355C162.194 240.118 161.039 239.207 160.4 238.754C167.688 230.886 171.459 223.07 173.467 212.632C195.664 225.193 222.141 226.765 246.962 223.793C273.295 220.346 298.807 212.25 322.311 199.883C335.315 192.315 345.409 185.957 354.873 173.913Z" fill="#1A4D90"/>
<path d="M226.783 419.263C226.289 408.304 228.793 398.967 235.755 390.304C242.663 381.554 252.862 376.027 263.963 375.016C274.973 373.937 285.954 377.337 294.428 384.449C304.003 392.443 307.817 402.394 308.956 414.553C290.409 417.575 271.988 420.138 253.179 419.97C244.681 419.894 235.218 420.284 226.783 419.263Z" fill="#FEFEFD"/>
<path d="M243.812 352.298C245.845 343.523 250.922 336.888 258.489 332.087C266.669 326.95 276.562 325.292 285.97 327.479C302.84 331.388 313.265 344.967 314.034 362.01C287.683 367.094 267.875 365.301 243.812 352.298Z" fill="#FEFEFD"/>
<path d="M322.311 199.883C324.14 204.471 321.633 214.922 319.668 219.538C315.604 229.186 307.829 236.793 298.094 240.645C278.818 248.23 257.744 241.614 246.962 223.793C273.295 220.346 298.807 212.25 322.311 199.883Z" fill="#FEFEFD"/>
<path d="M393.553 297.143C397.697 322.01 401.071 349.768 389.746 373.07C369.985 361.044 361.983 341.509 370.599 319.012C374.524 308.762 383.516 301.304 393.553 297.143Z" fill="#FEFEFD"/>
<path d="M128.903 302.84C133.485 302.69 137.707 302.346 142.199 301.447C146.304 308.704 151.206 311.559 158.718 314.527C160.01 338.018 149.85 354.51 125.596 358.361C125.495 337.453 126.567 323.614 128.903 302.84Z" fill="#FEFEFD"/>
<path d="M159.865 238.537L160.4 238.754C161.039 239.207 162.194 240.118 162.858 240.355C161.344 244.89 161.9 248.044 160.421 251.973C159.902 251.193 159.923 240.222 159.865 238.537Z" fill="#1A4D90"/>
<path d="M262.115 41.1917C301.688 -21.0587 317.463 -5.25895 323.713 60.3098C324.158 64.9756 323.109 76.8175 324.188 80.0945C329.642 96.6635 339.634 115.15 345.804 131.249C334.56 145.645 312.586 159.185 295.775 166.688C298.363 161.03 301.576 156.225 303.558 150.075C307.424 138.084 311.486 117.163 295.573 112.361C298.775 110.916 311.48 107.468 315.329 106.349C318.159 108.046 320.806 110.301 324.017 108.452C326.446 103.713 318.511 99.1475 315.11 99.9085C301.237 103.012 286.073 108.287 272.542 112.502C271.601 107.06 270.73 103.052 268.086 98.1185C263.759 89.9855 256.359 83.9205 247.534 81.2745C226.605 75.0515 208.818 86.5665 203.066 107.049C199.828 106.427 197.013 106.301 193.731 106.084C193.485 104.19 193.157 102.307 192.748 100.441C190.941 91.5435 185.636 83.7435 178.024 78.7935C171.451 74.5535 165.861 73.4415 158.309 75.0415C161.626 69.3255 165.733 64.105 170.507 59.5342C172.065 58.0168 176.782 53.9348 177.67 52.5383L177.234 51.3086C171.684 53.8272 165.447 61.5728 161.445 66.2666C159.778 68.6442 157.854 71.2745 156.299 73.6855C151.654 59.4024 149.265 23.8221 154.241 10.2392C160.234 -6.11784 200.139 32.9302 204.359 38.2539C201.118 38.8172 197.032 39.1555 194.838 41.6936C196.754 42.5824 205.51 40.3355 208.39 39.9507C226.658 37.5088 243.905 36.9122 262.115 41.1917Z" fill="#ECAD47"/>
<path d="M161.445 66.2666C159.24 61.8071 154.47 20.8102 160.799 19.6325C169.003 23.6189 172.995 44.6321 177.234 51.3086C171.684 53.8272 165.447 61.5728 161.445 66.2666Z" fill="#FEFEFD"/>
<path d="M298.534 18.2071C301.192 18.0633 303.202 18.8598 304.35 21.3365C310.083 33.6999 310.864 58.5489 307.959 71.4775C304.632 68.6944 301.27 65.4 298.093 62.4063C291.468 56.6363 285.28 52.4425 278.069 47.4504C282.068 37.6064 289.569 24.345 298.534 18.2071Z" fill="#FEFEFD"/>
<path d="M1.91731 203.056C28.6883 217.5 73.7683 216.686 103.253 209.487C108.131 208.296 113.4 205.509 117.783 203.1C118.518 222.027 118.14 240.485 118.014 259.433C117.945 269.684 118.445 281.443 117.323 291.581C116.916 295.249 114.368 299.604 112.466 302.771C99.2063 322.043 73.1863 318.989 52.3933 319.064C38.5333 318.43 21.6344 318.2 11.2124 307.844C-1.52765 295.185 1.71532 272.4 1.77632 255.87L1.91731 203.056Z" fill="#F9663D"/>
<path d="M272.086 119.144C278.347 117.784 288.753 114.26 295.573 112.361C311.486 117.163 307.424 138.084 303.558 150.075C301.576 156.225 298.363 161.03 295.775 166.688C284.852 173.271 264.946 178.683 252.704 182.841C237.352 188.055 217.655 195.821 201.684 196.038C182.516 196.299 150.961 183.775 151.407 160.493C151.518 152.323 155.359 146.506 160.922 141.02C165 140.136 168.322 139.287 172.332 138.13C184.497 131.118 189.316 126.519 193.092 112.733C196.756 112.987 198.802 113.242 202.396 114.22C203.374 126.365 205.033 131.533 213.29 140.592C219.246 145.618 224.794 148.909 232.644 150.078C241.886 151.418 251.279 148.993 258.716 143.346C267.211 136.968 270.576 129.322 272.086 119.144Z" fill="#FEFEFD"/>
<path d="M193.092 112.733C196.756 112.987 198.802 113.242 202.396 114.22C203.374 126.365 205.033 131.533 213.29 140.592C202.37 143.35 197.035 140.303 186.444 138.728C181.492 137.992 177.317 137.998 172.332 138.13C184.497 131.118 189.316 126.519 193.092 112.733Z" fill="#ECAD47"/>
<path d="M177.982 143.994C209.467 141.281 214.381 163.323 181.285 165.853L181.316 174.192C191.224 184.132 193.808 179.568 201.796 182.989L201.735 183.562C198.163 184.499 197.266 184.45 193.609 183.815C187.754 181.96 185.574 180.197 180.517 176.651C176.878 179.613 173.682 181.025 168.983 181.53L168.693 181.076C171.468 178.565 174.306 178.712 178.502 175.493L179.041 175.073L179.214 165.667C157.051 162.834 153.359 146.842 177.982 143.994Z" fill="#010101"/>
<path d="M348.236 130.1C355.197 133.203 358.403 140.023 359.446 147.231C360.848 156.51 358.386 165.958 352.634 173.372C332.583 199.735 280.245 217.848 247.884 221.637C219.042 225.014 188.797 222.986 165.017 204.745C155.639 197.091 151.666 189.133 154.264 176.993C160.187 184.212 164.952 187.497 173.216 191.421C200.12 204.197 220.656 195.82 246.857 186.885C258.107 183.048 270.077 179.272 281.393 175.123C299.64 168.432 340.325 147.762 348.236 130.1Z" fill="#FEFEFD"/>
<path d="M341.08 508.398C345.502 508.158 352.851 509.639 357.263 510.535C357.344 516.563 357.383 522.592 357.381 528.621C357.265 541.297 355.82 554.396 346.262 563.738C335.146 574.602 319.009 573.21 304.559 573.034L279.827 572.749C268.943 559.578 275.329 550.774 283.114 538.858C269.178 547.922 270.684 559.448 276.298 572.901C268.844 573.021 261.388 572.973 253.936 572.757C252.505 571.336 251.743 570.173 250.556 568.53C247.021 560.66 246.997 553.18 250.789 545.557C251.537 544.053 253.101 540.472 253.213 538.961C248.633 537.563 247.11 547.913 246.588 550.844C245.078 559.327 246.749 566.362 251.255 573.537C231.512 568.848 227.818 551.81 237.818 535.813C245.049 524.247 254.616 520.862 267.425 518.055L267.165 510.386C277.972 509.747 285.875 511.199 296.46 512.745C299.53 513.026 305.047 510.837 307.792 511.034C320.474 511.945 328.771 511.342 341.08 508.398Z" fill="#FEFEFD"/>
<path d="M227.889 507.44C231.331 507.007 234.078 507.741 237.379 508.489C237.474 513.54 237.971 526.983 236.71 531.224C233.347 542.54 230.864 542.282 230.749 554.661C229.689 555.725 228.622 556.781 227.547 557.83C223.85 561.432 219.945 565.085 215.08 567.032C204.786 571.151 170.897 569.524 158.101 569.336C157.825 568.947 157.553 568.556 157.285 568.161C151.701 559.896 151.341 551.069 156.442 542.338C157.495 540.535 159.44 538.963 159.748 537.367C155.755 535.958 153.704 540.541 152.828 543.552C149.928 553.519 150.472 560.296 155.295 569.427C147.626 569.464 139.956 569.394 132.289 569.219C129.048 564.987 128.52 563.615 127.01 558.711C125.158 546.164 127.483 543.356 132.727 532.237C120.377 543.516 123.569 555.456 128.604 568.969C110.068 562.731 109.548 541.187 121.532 528.518C130.89 518.627 139.855 516.915 152.838 516.247L153.052 508.854C165.248 507.598 170.836 509.247 182.839 511.151C186.462 512.341 197.446 508.556 199.896 509C211.965 511.185 216.111 510.053 227.889 507.44Z" fill="#FEFEFD"/>
<path d="M164.101 241.568C168.162 242.197 181.174 246.977 185.6 248.465C197.234 252.375 208.954 255.888 220.586 259.716C215.575 279.154 207.278 309.722 200.735 328.205C187.804 323.511 157.481 313.374 147.868 306.071C144.75 302.904 139.57 292.694 143.71 289.095C149.144 291.794 164.747 297.15 169.649 292.945L169.697 292.131C168.082 291.43 158.767 292.072 155.406 291.471C141.498 288.984 140.597 280.819 142.977 268.436C148.827 272.139 165.009 275.449 171.068 271.836L171.004 271.233C165.966 269.269 145.656 273.106 142.797 264.824C143.096 254.388 163.607 254.385 170.947 254.208C164.526 251.727 161.313 249.161 164.101 241.568Z" fill="#FEFEFD"/>
<path d="M170.873 131.127C165.687 133.607 162.913 132.947 157.455 133.671C156.197 133.838 154.125 134.036 153.382 134.964C167.255 136.957 180.045 131.384 186.105 118.429C189.233 111.701 189.465 103.984 186.749 97.0805C184.353 90.8965 180.146 86.2195 174.802 82.3935C172.336 80.6285 164.047 78.7775 163.068 76.1865C166.837 74.1405 178.011 81.0185 181.114 83.8255C188.642 90.6345 191.034 98.1335 191.541 107.993C196.506 108.172 199.896 108.67 204.675 109.838C205.977 103.242 207.817 98.1365 212.178 92.9015C217.536 86.4775 225.259 82.4845 233.599 81.8275C242.725 80.9625 251.815 83.8085 258.818 89.7235C266.842 96.5545 269.594 104.615 270.46 114.76C285.509 111.175 300.977 105.247 316.182 101.437C318.643 102.743 320.731 103.564 322.079 105.991L321.622 106.629C319.605 106.608 317.762 105.233 315.95 104.187C310.156 105.414 302.589 107.971 296.79 109.758C288.036 112.461 279.254 115.074 270.446 117.599C269.333 125.635 267.6 131.678 261.986 137.829C256.076 144.352 247.772 148.199 238.974 148.489C230.058 148.809 221.39 145.522 214.928 139.372C206.926 131.746 204.61 123.438 204.402 112.783C199.593 111.18 196.474 110.907 191.489 110.722C190.873 113.103 190.313 115.618 189.426 117.896C182.702 135.16 162.045 144.185 145.574 134.026C140.87 131.124 138.734 128.6 135.411 124.278C136.645 117.696 138.207 114.895 141.907 109.579C150.287 114.552 163.988 124.195 170.873 131.127Z" fill="#FEFEFD"/>
<path d="M231.714 85.2625C248.23 82.1385 264.128 93.0705 267.123 109.61C270.117 126.15 259.061 141.962 242.498 144.827C226.117 147.66 210.517 136.752 207.556 120.394C204.594 104.037 215.38 88.3525 231.714 85.2625Z" fill="#010101"/>
<path d="M217.877 94.4805C224.274 88.4285 233.124 85.6985 241.819 87.0945C256.623 89.4705 267.008 102.975 265.501 117.893C264.489 127.916 258.227 136.646 249.058 140.818C239.888 144.991 229.192 143.976 220.971 138.154C214.05 133.254 209.69 125.508 209.091 117.049C208.491 108.59 211.716 100.308 217.877 94.4805Z" fill="#ECAD47"/>
<path d="M220.971 138.154C226.478 134.109 258.716 119.947 265.501 117.893C264.489 127.916 258.227 136.646 249.058 140.818C239.888 144.991 229.192 143.976 220.971 138.154Z" fill="#FEFEFD"/>
<path d="M217.877 94.4805C224.274 88.4285 233.124 85.6985 241.819 87.0945C241.765 91.3465 241.566 93.3385 238.358 96.3545C231.76 102.559 221.722 104.212 217.877 94.4805Z" fill="#FEFEFD"/>
<path d="M238.751 104.899C243.608 104.61 247.134 104.556 250.192 108.743C251.354 115.375 235.292 121.103 229.945 123.617C213.577 130.05 217.629 110.688 238.751 104.899Z" fill="#010101"/>
<path d="M232.016 253.474C240.019 252.898 246.347 253.869 252.707 259.213C254.072 269.091 254.644 279.408 253.394 289.332C252.716 294.428 251.613 299.457 250.096 304.369C245.91 317.992 239.008 331.258 234.378 344.812C232.417 350.555 225.911 348.717 221.414 348.029C219.602 347.663 217.799 347.254 216.006 346.802C208.751 344.992 195.739 340.805 198.615 330.712C200.032 330.117 202.231 328.926 202.819 327.439C211.768 304.795 215.369 279.612 224.523 257.035C225.397 254.879 230.154 253.856 232.016 253.474Z" fill="#FEFEFD"/>
<path d="M465.139 329.7L465.549 330.138C466.659 334.369 466.629 339.253 467.009 343.624C468.839 365.123 466.649 388.65 451.269 405.174C446.615 410.175 441.747 412.845 435.662 415.703C434.703 417.534 433.071 420.726 431.781 422.202C424.559 430.466 408.191 435.404 397.649 435.929C383.045 436.655 371.832 431.872 361.169 422.263C361.218 420.327 361.147 416.066 361.921 414.532L362.655 414.771C375.384 423.903 382.881 425.262 398.111 418.966C401.981 417.366 413.487 420.789 421.422 415.927C431.51 409.747 428.895 405.13 436.619 398.381C440.544 394.95 445.983 394.794 451.117 389.349C447.129 379.813 450.944 375.588 455.852 367.677C449.42 366.665 441.227 363.217 438.611 356.228C438.379 355.401 438.754 353.541 439.496 353.04C449.926 345.99 457.206 339.986 465.139 329.7Z" fill="#FEFEFD"/>
<path d="M115.797 302.823C119.749 303.068 122.857 302.94 126.828 302.793C125.131 315.198 123.854 330.333 123.786 342.821C109.531 346.292 97.0294 347.22 82.4854 343.879C79.3434 343.157 75.2163 342.574 73.4093 339.83C66.2853 338.99 63.9634 337.373 58.2274 333.281C58.9504 333.114 59.6713 332.933 60.3873 332.739C68.4453 330.537 71.6364 327.946 75.7094 320.884C88.7554 320.034 96.6833 319.023 107.609 311.944C110.921 309.168 113.229 306.293 115.797 302.823Z" fill="#1A4D90"/>
<path d="M107.609 311.944C101.582 330.909 93.0483 338.006 73.4093 339.83C66.2853 338.99 63.9634 337.373 58.2274 333.281C58.9504 333.114 59.6713 332.933 60.3873 332.739C68.4453 330.537 71.6364 327.946 75.7094 320.884C88.7554 320.034 96.6833 319.023 107.609 311.944Z" fill="#FEFEFD"/>
<path d="M141.907 109.579C146.649 102.041 154.333 80.5665 157.963 77.8455C160.172 78.1535 166.823 80.9975 169.441 81.9615C176.648 85.3265 181.712 89.7655 184.728 97.3445C189.593 112.167 184.269 123.514 170.873 131.127C163.988 124.195 150.287 114.552 141.907 109.579Z" fill="#ECAD47"/>
<path d="M169.441 81.9615C176.648 85.3265 181.712 89.7655 184.728 97.3445C182.537 98.0015 180.214 98.0795 177.985 97.5725C170.256 95.7375 167.313 89.2895 169.441 81.9615Z" fill="#FEFEFD"/>
<path d="M160.866 98.8625C169.425 98.1705 183.25 107.133 182.291 116.706C182.093 118.688 180.212 119.821 178.719 120.899C174.988 121.068 171.626 118.955 168.769 116.657C163.657 112.547 150.818 104.954 160.866 98.8625Z" fill="#010101"/>
<path d="M125.049 229.522C134.989 229.694 143.404 229.843 143.94 242.26C143.619 246.308 144.11 251.345 143.634 255.44C142.749 260.157 141.087 263.479 139.912 268.27C138.873 272.507 141.603 280.427 138.343 283.509C137.361 284.438 134.493 285.605 133.146 285.462C131.574 279.952 140.132 249.018 140.431 239.944C136.508 248.517 131.589 276.218 130.151 286.254C126.803 286.328 123.885 286.209 120.538 286.059C120.337 275.291 120.22 264.522 120.186 253.753C120.161 250.042 119.405 237.514 121.468 235.097L125.049 229.522Z" fill="#1A4D90"/>
<path d="M125.049 229.522C134.989 229.694 143.404 229.843 143.94 242.26C142.695 242.323 141.45 242.369 140.204 242.398C131.726 242.582 127.409 240.82 121.468 235.097L125.049 229.522Z" fill="#FEFEFD"/>
<path d="M46.5133 183.602C65.2223 182.228 98.4573 183.353 114.797 193.712C116.385 194.719 117.31 196.088 117.626 197.966C117.219 199.727 116.059 200.416 114.66 201.653C102.952 195.74 86.7983 194.017 73.7113 193.689C57.3043 192.626 40.8313 193.322 24.5723 195.766C18.1373 196.751 11.2033 199.644 4.85832 200.59C3.79932 200.748 3.11333 199.752 2.55833 199.016C2.29533 187.789 37.9163 184.067 46.5133 183.602Z" fill="#F9663D"/>
<path d="M125.682 214.538C157.054 213.195 158.377 225.89 157.682 252.424C155.729 252.889 153.63 253.543 151.685 254.102C149.779 254.783 147.763 255.624 145.867 256.37C145.986 253.176 146.054 249.98 146.069 246.783C146.182 226.894 137.168 227.064 120.29 227.352C120.232 223.022 119.071 218.825 120.981 215.374C122.335 214.267 123.83 214.548 125.682 214.538Z" fill="#F9663D"/>
<path d="M15.7383 314.255C34.0773 322.216 54.1243 321.78 73.7533 320.81C72.0833 323.065 71.0103 324.235 69.1263 326.229C67.9393 327.134 66.6653 327.92 65.3233 328.574C56.4953 332.966 40.2443 331.175 31.0963 328.211C23.4963 325.749 19.1663 321.202 15.7383 314.255Z" fill="#FEFEFD"/>
<path d="M153.658 77.9245L154.137 78.7415C150.552 86.1775 147.714 93.6705 144.213 101.044C141.575 106.599 136.881 112.361 134.891 118.323C134.401 119.794 134.631 119.577 133.802 120.767L133.016 120.179C125.099 101.582 134.215 83.2445 153.658 77.9245Z" fill="#FEFEFD"/>
<path d="M135.321 128.53C145.375 135.292 143.995 138.147 158.624 140.429C152.701 146.877 150.783 149.968 149.417 158.697C149.282 162.549 149.455 163.859 150.025 167.705C141.675 154.827 135.297 144.157 135.321 128.53Z" fill="#FEFEFD"/>
<path d="M140.826 284.972C140.751 284.819 140.627 296.952 141.095 299.611C132.389 300.592 126.122 300.82 117.455 300.777C116.678 299.914 119.557 290.468 120.012 288.512C128.327 289.035 133.721 289.197 140.826 284.972Z" fill="#F9663D"/>
<path d="M136.007 210.824C137.448 207.579 149.503 194.487 152.526 191.246L152.964 192.253C147.294 198.585 141.781 205.056 136.43 211.661L136.007 210.824Z" fill="#010101" fill-opacity="0.941176"/>
</svg>
