<svg width="522" height="556" viewBox="0 0 522 556" fill="none" xmlns="http://www.w3.org/2000/svg">
<path d="M102.79 0.0797485C104.141 0.0177485 107.334 -0.114247 108.551 0.209753C123.59 4.22475 138.075 25.9608 145.913 38.3568C159.103 35.4018 181.867 36.2978 195.413 37.4738C201.399 30.9138 209.414 23.7748 216.602 18.5248C235.437 4.76976 253.381 -8.21425 253.448 27.3987C253.483 45.5447 251.917 58.8358 248.413 76.8218L251.181 80.2297C268.639 86.1287 278.172 99.8167 275.151 118.385C274.775 120.699 272.578 125.266 272.505 126.975C271.867 142.027 267.693 161.574 254.717 171.054C254.366 180.153 258.519 182.1 255.593 194.019C260.934 199.569 264.701 205.498 268.64 212.071C278.393 228.348 287.565 240.954 305.075 249.424C309.464 241.433 326.765 205.357 332.522 200.405C338.734 198.669 358.029 199.032 365.372 199.038L405.818 199.068L470.771 199.03C483.206 199.027 495.557 198.973 508.071 199.232C513.459 199.343 518.777 199.74 520.365 206.314C520.866 208.389 518.547 213.159 517.758 215.221C508.179 234.97 497.422 254.369 487.219 273.782C476.127 294.888 465.81 316.758 453.549 337.186C476.32 337.261 498.914 336.841 521.713 337.403C520.972 343.192 521.379 364.309 521.497 371.197L521 372.356C519.685 369.253 522.601 348.044 520.055 341.688C519.321 350.237 519.725 364.129 519.736 372.984L521.728 374.117C509.572 373.984 498.296 374.599 485.803 374.294C486.31 397.474 485.868 422.297 485.871 445.636L485.969 555.78C477.812 555.434 468.067 555.615 459.779 555.546C459.097 495.478 459.994 434.567 459.696 374.383C454.534 373.948 448.096 374.164 442.772 374.178L408.685 374.53L314.264 374.72C338.529 390.648 346.064 405.355 344.115 434.974C343.817 439.514 346.507 447.023 346.255 452.325C345.644 465.196 344.292 477.688 345.148 490.599C357.669 490.928 367.255 492.843 377.026 501.572C389.701 512.81 391.935 533.783 380.105 546.451C371.603 555.556 359.072 554.17 347.658 554.194L318.658 554.161L214.948 554.286C199.625 554.277 190.768 553.996 179.246 542.571C165.797 529.236 168.008 509.817 168.272 492.033L153.278 492.658C153.65 513.525 152.73 534.237 152.924 555.05L124.881 555.091C125.339 535.099 124.887 513.156 124.892 493.009C108.074 488.612 93.1519 492.446 77.3109 481.782C69.1659 476.298 68.6919 473.646 62.203 466.634C58.2656 461.763 45.2871 452.741 43.1891 447.066C40.3604 439.415 35.3123 426.153 33.6054 418.43C32.5571 417.855 31.3468 417.165 30.4192 416.411C-14.6202 380.151 -0.0572662 318.609 13.6742 270.808C23.115 237.943 33.7551 199.6 54.4823 171.97C54.0303 171.28 53.6084 170.571 53.2179 169.845C49.583 162.973 49.0877 150.661 51.5238 143.317C53.7817 136.511 56.6756 133.341 62.7273 130.281C65.3129 120.53 73.3929 103.702 77.6319 94.0368C84.8439 77.5928 82.0409 79.7408 82.8959 63.9478C83.8319 46.6618 87.3149 9.38775 102.79 0.0797485ZM404.577 282.733C411.974 282.237 417.586 275.867 417.145 268.467C416.705 261.067 410.377 255.407 402.974 255.792C395.492 256.181 389.759 262.591 390.204 270.07C390.649 277.549 397.102 283.234 404.577 282.733Z" fill="#010101"/>
<path d="M90.818 339.199C120.498 339.661 150.985 339.092 180.777 339.103L401.336 339.034L479.606 339.083C483.841 339.077 517.685 338.484 519.695 339.553L520.055 341.688C519.321 350.237 519.725 364.129 519.736 372.984C517.061 372.693 509.143 372.944 506.169 372.963C496.927 373.035 487.685 373.059 478.443 373.036C447.823 372.739 417.203 372.601 386.582 372.622L90.831 372.618C90.469 361.353 90.645 350.453 90.818 339.199Z" fill="#F9663D"/>
<path d="M64.403 131.612C66.897 121.322 74.942 104.591 79.275 94.3347C85.823 78.8377 84.192 77.3287 84.952 61.0497C85.388 51.1377 86.614 41.2768 88.618 31.5598C93.799 6.96375 101.829 -11.0093 124.94 13.2987C133.421 22.2187 138.673 30.4187 144.897 40.8137C162.389 37.6897 175.11 37.0698 192.808 39.1428C197.426 39.6838 206.432 42.1897 210.259 42.0337L210.389 41.4367C207.998 39.1677 201.268 38.0827 197.841 37.3507C203.399 32.1107 242.16 -4.42026 248.601 9.05874C255.355 23.1937 250.925 58.2097 247.379 73.4377L241.142 65.0287C237.555 60.6277 231.598 53.9897 226.966 51.0627L226.32 52.3267C226.968 53.6747 235.465 61.9447 237.336 64.0717C241.554 68.9157 245.258 74.1837 248.39 79.7907C228.078 73.6567 214.913 91.0707 212.037 109.179C208.095 109.016 205.941 109.237 201.976 109.649C201.015 106.436 200.13 103.3 198.736 100.24C186.841 74.1227 149.781 72.2298 136.325 98.2238C134.051 102.687 132.65 107.542 132.197 112.53C120.05 108.88 104.903 104.722 92.603 101.741C88.788 103.343 83.533 105.77 84.02 110.657C86.985 113.157 89.9909 110.517 92.8019 108.818C100.38 110.378 107.879 112.304 115.271 114.589C111.011 115.497 107.212 116.412 104.939 120.496C96.695 135.304 104.923 154.541 111.334 167.415C97.415 160.768 72.605 144.659 64.403 131.612Z" fill="#ECAD47"/>
<path d="M226.966 51.0627L226.529 50.5667C227.485 45.0297 237.508 20.1387 243.827 19.7417C248.254 24.0287 244.437 60.0237 241.142 65.0287C237.555 60.6277 231.598 53.9897 226.966 51.0627Z" fill="#FEFEFD"/>
<path d="M106.277 17.8457C116.631 19.4387 126.349 39.3347 129.932 48.0307C122.721 52.3937 119.034 55.2057 112.71 60.5327C110.5 62.4747 102.958 70.0297 100.949 70.7387C100.842 70.6427 100.735 70.5477 100.628 70.4517C96.6109 58.7797 98.4869 25.6257 106.277 17.8457Z" fill="#FEFEFD"/>
<path d="M115.271 114.589C121.158 115.888 126.966 117.609 132.769 119.249C134.37 129.542 137.882 136.908 146.471 143.245C153.905 148.792 163.258 151.116 172.424 149.691C179.252 148.637 184.304 145.942 189.723 141.809C203.516 147.299 214.708 141.454 229.32 140.056C235.93 142.63 239.835 143.541 246.984 144.049C254.273 151.899 257.831 160.193 254.717 171.054C254.126 172.336 253.485 173.593 252.796 174.824C243.84 190.604 215.147 199.995 197.933 197.662C184.667 195.863 169.486 189.845 156.772 185.374C142.396 180.319 124.532 175.045 111.334 167.415C104.923 154.541 96.695 135.304 104.939 120.496C107.212 116.412 111.011 115.497 115.271 114.589Z" fill="#FEFEFD"/>
<path d="M216.977 146.65C224.931 145.898 234.185 145.898 241.1 150.584C244.675 153.007 247.653 157.875 244.334 161.803C240.535 166.297 233.386 167.915 227.759 168.711L227.802 177.416C231.036 180.657 237.433 181.864 238.036 184.852L238.385 184.676L238.283 184.24L237.705 184.855C233.482 184.157 229.61 181.745 226.465 178.948C225.102 180.149 223.594 181.203 222.125 182.277C218.369 184.574 208.446 189.204 204.549 185.963L204.479 184.99C206.138 184.058 208.203 184.958 210.599 184.604C216.634 183.713 221.099 180.707 225.552 176.903C225.596 174.38 225.516 171.576 225.493 169.03C217.495 168.264 205.712 166.362 202.541 157.866C200.073 151.255 212.485 147.634 216.977 146.65Z" fill="#010101"/>
<path d="M202.242 116.598C205.716 116.224 208.738 116.045 212.233 115.885C215.153 128.284 218.521 133.187 229.32 140.056C214.708 141.454 203.516 147.299 189.723 141.809C197.998 133.963 200.649 127.831 202.242 116.598Z" fill="#ECAD47"/>
<path d="M54.9718 174.061C63.2535 185.125 71.7009 191.889 83.0949 199.309C119.863 220.59 169.822 235.384 211.892 223.929C228.809 219.322 245.944 211.417 255.056 195.706C264.58 207.325 270.364 219.535 279.597 231.226C281.268 233.342 283.267 235.252 285.049 237.288C291.115 242.635 297.032 246.789 303.64 251.381C299.013 260.765 294.262 270.087 289.388 279.345C287.641 282.709 283.892 290.415 282.002 293.165C281.053 295.717 273.749 308.931 272.063 312.112C270.251 285.598 267.295 264.193 259.487 238.39C259.042 236.919 258.575 234.95 257.386 234.34C256.633 235.338 256.6 235.788 256.924 237.08C261.939 257.054 274.799 301.9 267.89 321.019C265.964 320.909 263.69 320.604 261.741 320.397C275.618 288.943 252.931 268.606 222.849 263.925C205.045 261.154 193.05 262.231 175.581 264.924C169.381 253.563 153.887 251.667 142.614 255.63C139.111 256.862 136.507 258.534 133.357 260.476C125.134 260.475 121.618 260.653 113.441 262.244C112.069 255.759 111.204 249.843 110.878 243.239C110.742 240.466 110.626 235.641 109.508 233.267L108.954 233.42C106.867 237.423 110.165 258.008 111.67 262.668C97.797 266.535 80.5909 275.862 72.4719 288.38C71.8219 289.382 70.6279 291.532 70.9469 292.739C72.6309 291.731 78.4109 284.595 80.5859 282.489C94.4249 269.086 113.04 262.359 132.179 262.703C130.787 265.161 129.344 268.781 128.195 271.453C120.628 291.811 124.012 313.761 132.83 333.081C133.431 334.396 134.043 335.706 134.663 337.011L112.855 337.163L88.8149 337.041C88.3939 344.902 88.5359 352.238 88.6909 360.106C41.1677 353.128 22.6542 316.1 24.4083 270.972C24.5195 268.111 26.8351 256.6 25.1346 255.242C21.3259 260.345 22.4741 288.632 23.4675 295.087C29.1669 332.124 50.5515 357.599 88.5429 361.918L88.8449 375.057L124.706 375.132C124.697 379.098 124.6 383.401 124.71 387.337C107.984 394.152 46.5983 421.385 32.5557 415.525C24.3449 412.099 11.4797 392.908 8.30905 384.443C-1.76415 359.045 0.578451 334.786 6.09355 308.771C9.54925 290.241 15.8903 269.477 21.1487 251.269C23.0348 244.737 26.2718 234.056 28.7313 227.898C30.1096 224.805 32.6316 217.188 33.9403 213.713C39.7428 198.308 44.9552 187.309 54.9718 174.061Z" fill="#1A4D90"/>
<path d="M6.09355 308.771C17.5848 312.434 26.035 318.593 31.605 329.567C36.1655 338.61 36.9719 349.088 33.8491 358.723C30.4981 368.953 22.6329 377.426 13.0661 382.205C11.4926 382.977 9.90675 383.723 8.30905 384.443C-1.76415 359.045 0.578451 334.786 6.09355 308.771Z" fill="#FEFEFD"/>
<path d="M54.9717 174.061C63.2534 185.125 71.7009 191.889 83.0949 199.309C81.2609 210.221 77.1399 218.691 67.9329 225.355C59.8361 231.134 49.7672 233.443 39.9612 231.768C35.6242 231.014 32.6253 229.837 28.7313 227.898C30.1096 224.805 32.6316 217.188 33.9403 213.713C39.7428 198.308 44.9551 187.309 54.9717 174.061Z" fill="#FEFEFD"/>
<path d="M112.855 337.163C106.547 332.798 101.545 328.123 98.1309 321.111C93.9589 312.412 93.4489 302.404 96.7129 293.325C99.6489 284.874 105.874 277.967 113.976 274.173C117.178 272.659 124.866 270.261 128.195 271.453C120.628 291.811 124.012 313.761 132.83 333.081C133.431 334.396 134.043 335.706 134.663 337.011L112.855 337.163Z" fill="#FEFEFD"/>
<path d="M285.049 237.288C291.115 242.635 297.032 246.789 303.64 251.381C299.013 260.765 294.262 270.087 289.388 279.345C287.641 282.709 283.892 290.415 282.002 293.165C267.548 281.47 266.078 259.22 277.21 244.844C279.652 241.69 281.932 239.737 285.049 237.288Z" fill="#FEFEFD"/>
<path d="M96.8089 260.514C98.0229 260.386 97.4199 260.314 98.6129 260.768C98.0069 262.324 94.0459 264.092 92.3219 264.863C85.1219 268.08 79.9219 272.708 74.1269 277.937C73.2999 278.106 73.6339 278.023 72.6499 277.7L72.5029 276.844C75.7739 270.589 90.4909 263.205 96.8089 260.514Z" fill="#010101"/>
<path d="M369.583 200.789C398.566 200.158 428.928 200.587 458.005 200.634L492.412 200.759C498.718 200.815 504.921 200.836 511.294 201.185C514.673 201.371 518.271 203.671 518.733 207.345C518.94 208.997 517.404 212.347 516.637 213.926C507.794 232.123 498.122 249.923 488.889 267.917C481.287 282.922 473.515 297.841 465.574 312.669C462.334 318.858 457.031 329.657 453.081 335.183C450.975 338.128 433.299 337.016 428.569 336.958L344.085 336.88C324.077 336.914 302.584 337.173 282.656 336.509C281.006 334.941 279.927 333.603 278.477 331.872C280.487 327.429 284.659 320.085 287.023 315.573L304.039 282.961C316.458 259.017 328.763 234.99 341.231 211.089C346.667 200.669 348.02 200.661 359.559 200.903C362.638 200.968 366.438 200.828 369.583 200.789ZM404.577 282.733C411.974 282.237 417.586 275.867 417.145 268.467C416.705 261.067 410.377 255.407 402.974 255.792C395.492 256.181 389.759 262.591 390.204 270.07C390.649 277.549 397.102 283.234 404.577 282.733Z" fill="#1A4D90"/>
<path d="M403.044 253.623C411.578 253.397 418.694 260.103 418.975 268.635C419.256 277.167 412.597 284.327 404.066 284.663C395.458 285.002 388.219 278.268 387.935 269.657C387.652 261.047 394.432 253.852 403.044 253.623ZM404.577 282.733C411.974 282.237 417.586 275.867 417.145 268.467C416.705 261.067 410.377 255.407 402.974 255.792C395.492 256.181 389.759 262.591 390.204 270.07C390.649 277.549 397.102 283.234 404.577 282.733Z" fill="#010101"/>
<path d="M174.083 441.876C175.421 446.134 170.526 456.646 170.288 462.519C169.931 471.331 172.124 477.946 172.525 486.52L172.563 487.423C179.704 488.598 187.762 490.32 194.948 490.557C199.567 490.709 205.861 489.167 210.73 489.591C216.671 490.109 222.154 492.329 228.317 492.109C237.596 491.793 247.024 487.453 256.318 489.913C259.93 490.869 260.238 493.411 261.277 495.151C262.03 496.413 269.215 496.178 271.7 496.777C281.524 499.054 290.037 505.15 295.356 513.717C305.117 529.704 298.943 543.284 283.718 552.165C288.092 544.256 289.851 537.834 288.618 528.606C288.064 524.458 285.943 518.432 282.462 515.896C281.448 517.441 285.678 525.619 286.21 528.005C286.796 530.63 286.839 531.708 286.946 534.352C286.544 542.279 285.273 546.653 279.708 552.427C274.258 552.548 269.202 552.461 263.766 552.337C266.97 546.588 268.506 542.366 268.123 535.564C267.884 531.324 265.551 519.571 259.606 520.488C260.303 523.586 264.587 526.253 265.397 531.15C267.946 543.089 265.761 553.387 251.179 552.48C232.864 551.342 204.723 556.644 188.613 547.568C164.721 534.108 171.022 507.779 170.338 485.208C169.91 471.101 165.989 454.966 174.083 441.876Z" fill="#FEFEFD"/>
<path d="M61.3422 132.856C62.5932 133.127 67.358 138.959 69.113 140.67C95.27 166.168 127.451 178.07 161.449 189.259C175.029 193.662 190.896 200.813 205.432 200.062C225.929 199.002 240.199 192.197 253.773 177.553C257.645 189.125 254.125 195.516 246.402 203.805C226.089 223.526 187.896 228.817 160.895 224.515C124.682 218.746 82.346 204.36 58.4525 175.25C48.8834 163.592 48.2156 142.2 61.3422 132.856Z" fill="#FEFEFD"/>
<path d="M229.531 379.038C235.429 379.739 243.06 384.96 247.164 389.195C265.083 407.687 263.499 427.65 263.508 451.054C263.583 462.621 263.578 474.188 263.494 485.755C274.563 487.639 281.42 486.911 292.525 486.72C298.633 487.033 306.227 489.734 312.282 489.066C322.317 487.96 336.747 481.683 344.194 492.259C348.568 493.372 353.149 492.541 357.335 493.421C384.553 499.145 399.122 531.716 372.568 549.72C376.458 541.329 377.687 534.276 376.106 525.083C375.43 521.149 374.682 515.842 369.55 516.027C369.492 517.043 372.031 520.428 372.828 522.242C373.867 524.641 374.548 527.179 374.849 529.776C375.725 537.154 374.003 543.787 369.349 549.557L368.896 550.109C362.864 553.485 354.648 552.66 347.737 552.556C348.021 552.227 348.303 551.897 348.583 551.565C359.005 539.212 356.013 525.497 343.864 515.866C351.05 529.939 360.2 537.952 344.323 552.469L287.942 552.459C289.589 551.248 291.169 549.949 292.676 548.569C310.323 532.388 300.135 507.081 281.057 498.099C274.743 495.127 269.335 493.893 262.364 493.863C262.178 482.425 262.074 470.985 262.055 459.545C262.067 437.446 263.992 413.239 249.552 394.676C244.609 388.321 235.537 384.431 229.531 379.038Z" fill="#FEFEFD"/>
<path d="M197.12 264.258C213.675 262.019 239.598 267.727 252.896 279.04C263.838 288.35 268.441 306.983 259.034 319.233C257.419 321.336 250.624 320.583 247.836 320.522C252.546 308.398 253.887 297.501 242.669 288.522C249.904 302.579 250.526 305.133 245.915 320.496L230.538 320.544L221.448 320.534C224.245 307.528 224.596 298.602 212.789 290.058C214.889 294.236 218.239 297.56 219.816 302.33C222.07 309.147 221.257 314.323 218.282 320.47C207.257 320.309 195.752 319.967 184.729 320.712C180.888 320.971 178.707 322.005 175.584 324.221C173.707 321.498 171.663 318.174 170.219 315.209C163.376 301.048 162.402 284.759 167.508 269.884C178.635 266.791 185.647 265.219 197.12 264.258Z" fill="#FEFEFD"/>
<path d="M126.906 374.644L151.176 374.75L151.297 553.923C143.211 554.168 134.495 553.982 126.359 553.946L126.906 374.644Z" fill="#F9663D"/>
<path d="M461.407 379.11C468.935 378.945 476.732 379.059 484.283 379.077L484.308 554.11L461.37 554.026L461.407 379.11Z" fill="#F9663D"/>
<path d="M238.81 80.1537C240.271 80.0477 241.372 79.7667 242.302 80.9337C239.913 84.1687 225.755 83.9057 219.151 99.8567C216.119 107.159 216.107 115.366 219.117 122.677C223.532 133.252 232.357 138.457 243.563 139.361C246.269 139.58 249.973 139.158 252.263 140.11L252.19 140.665C241.427 145.29 222.581 137.369 218.101 126.829C212.27 113.112 216.771 112.392 200.433 114.675C198.773 129.232 192.248 141.848 177.41 146.599C168.822 149.287 159.517 148.445 151.551 144.259C142.804 139.636 137.906 132.14 135.052 122.948L134.171 117.532C121.456 113.586 105.734 109.867 92.7209 106.546C89.7289 108.188 87.3179 109.431 84.2219 110.859C86.9649 107.36 88.3769 106.124 91.8599 103.682C104.87 106.212 120.268 111.665 134.016 114.709C134.65 107.72 135.989 101.985 139.926 96.0147C144.761 88.7697 152.318 83.7847 160.882 82.1917C169.609 80.6177 178.604 82.5797 185.882 87.6457C194.649 93.7827 198.44 101.888 200.224 112.103C204.673 111.343 209.342 111.38 213.835 111.51C215.228 95.1747 222.602 84.4857 238.81 80.1537Z" fill="#FEFEFD"/>
<path d="M163.171 84.9537C179.723 82.7737 194.907 94.4267 197.083 110.98C199.258 127.532 187.6 142.713 171.047 144.883C154.501 147.053 139.327 135.401 137.153 118.855C134.979 102.31 146.626 87.1327 163.171 84.9537Z" fill="#010101"/>
<path d="M139.18 119.608C137.794 111.265 140.209 102.74 145.764 96.3647C151.32 89.9887 159.435 86.4307 167.888 86.6627C176.167 86.8907 183.932 90.7327 189.136 97.1757C194.138 103.369 196.301 111.383 195.096 119.252C193.89 127.122 189.427 134.12 182.8 138.532C174.804 143.856 164.654 144.762 155.841 140.939C147.028 137.115 140.756 129.084 139.18 119.608Z" fill="#ECAD47"/>
<path d="M139.18 119.608C148.872 122.315 174.685 132.99 182.8 138.532C174.804 143.856 164.654 144.762 155.841 140.939C147.028 137.115 140.756 129.084 139.18 119.608Z" fill="#FEFEFD"/>
<path d="M167.888 86.6628C176.167 86.8908 183.932 90.7328 189.136 97.1758C187.372 100.291 186.283 101.948 182.669 102.9C176.049 104.643 167.289 100.47 165.785 93.4727C165.121 90.3827 166.253 89.1098 167.888 86.6628Z" fill="#FEFEFD"/>
<path d="M159.252 106.654C169.206 105.623 178.373 109.687 184.707 117.604C187.658 121.293 185.052 124.611 181.737 126.651C177.685 126.267 172.914 123.977 169.207 122.158C163.197 119.207 149.174 114.282 159.252 106.654Z" fill="#010101"/>
<path d="M149.583 256.157C152.562 255.921 156.905 256.139 159.753 256.984C164.646 258.435 173.492 259.755 171.69 266.499L170.254 267.041L171.313 267.295L170.173 266.899C169.691 265.94 169.191 265.119 168.649 264.197L167.819 263.988C165.542 265.847 163.331 275.462 162.967 278.55C160.686 297.898 163.637 310.896 174.953 326.23L174.575 332.283C175.467 333.933 176.529 335.552 177.526 337.149L168.07 337.146L137.228 337.126C125.905 315.922 120.99 288.275 132.93 265.585C136.07 259.618 143.32 257.329 149.583 256.157Z" fill="#FEFEFD"/>
<path d="M237.15 85.4377C241.816 84.0647 244.967 81.7148 249.046 82.4038C253.015 86.1098 256.121 96.8117 258.652 102.132C260.412 105.83 261.297 107.524 263.541 111.113C267.539 116.889 268.842 119.943 270.325 126.891C265.99 133.2 262.586 136.191 255.138 139.086C247.043 136.679 243.676 139.356 236.836 133.648C232.419 130.164 230.219 127.039 226.198 123.427C229.747 129.584 231.825 131.388 236.817 136.441C220.361 128.994 214.834 116.526 221.357 99.4948C224.686 92.7088 230.217 88.1637 237.15 85.4377Z" fill="#ECAD47"/>
<path d="M236.836 133.648C239.221 130.21 259.204 114.488 263.541 111.113C267.539 116.889 268.842 119.943 270.325 126.891C265.99 133.2 262.586 136.191 255.138 139.086C247.043 136.679 243.676 139.356 236.836 133.648Z" fill="#FEFEFD"/>
<path d="M221.357 99.4948C224.686 92.7088 230.217 88.1637 237.15 85.4377C237.839 90.1537 238.058 92.5257 235.011 96.6107C231.663 101.1 226.141 101.665 221.357 99.4948Z" fill="#FEFEFD"/>
<path d="M241.171 102.103C244.858 101.84 251.326 102.755 249.128 108.111C246.64 114.176 237.783 120.232 232.124 123.216C216.997 127.211 226.138 106.314 241.171 102.103Z" fill="#010101"/>
<path d="M335.023 201.132C338.028 201.037 341 201.197 344.004 201.309C341.787 206.123 338.204 212.006 335.622 216.914L318.354 249.996C304.499 276.382 291.563 302.225 277.291 328.557C276.782 329.13 277.122 328.857 276.169 329.225C273.052 327.11 271.932 324.872 270.087 321.684C275.72 308.07 289.215 284.451 296.564 270.241L317.083 230.245C320.688 223.282 329.147 204.912 335.023 201.132Z" fill="#1A4D90"/>
<path d="M185.494 322.306C195.252 321.903 205.603 322.552 215.458 322.513C232.49 322.444 249.516 322.304 266.547 322.458L270.513 326.39C262.879 326.661 235.683 325.644 230.844 327.066C229.757 328.557 229.339 330.972 230.108 332.679C232.658 334.694 249.942 334.103 254.084 334.1C258.296 334.124 262.859 334.1 267.034 334.201C272.256 334.328 270.329 333.21 273.758 332.062C276.047 333.55 277.453 335.333 279.296 337.351L217.219 337.081C208.415 337.079 188.69 337.584 180.558 336.529C174.376 329.164 175.453 323.84 185.494 322.306Z" fill="#1A4D90"/>
<path d="M193.402 325.803C198.134 325.669 209.521 324.419 212.536 328.435C213.319 331.283 212.25 333.246 209.445 334.008C203.535 334.098 186.179 337.313 189.946 327.112C191.486 325.84 191.168 326.225 193.402 325.803Z" fill="#010101"/>
<path d="M520.055 341.688C522.601 348.044 519.685 369.253 521 372.356L521.497 371.197C521.653 372.373 521.75 372.939 521.728 374.117L519.736 372.984C519.725 364.129 519.321 350.237 520.055 341.688Z" fill="#010101" fill-opacity="0.984314"/>
<path d="M270.187 130.916C272.718 141.26 263.545 158.067 258.064 166.221C257.982 163.483 257.763 161.165 257.496 158.458C255.763 152.051 253.654 148.646 249.72 143.452C258.875 140.086 263.836 138.44 270.187 130.916Z" fill="#FEFEFD"/>
<path d="M252.939 82.8148C270.247 88.3648 277.31 104.285 272.565 121.397L272.052 122.235C269.436 120.39 254.594 86.9178 252.939 82.8148Z" fill="#FEFEFD"/>
</svg>
