<?xml version="1.0" encoding="utf-8" ?><svg xmlns="http://www.w3.org/2000/svg" xmlns:xlink="http://www.w3.org/1999/xlink" width="1024" height="1024" viewBox="0 0 1024 1024"><path fill="#CD9387" d="M299.082 349.683C299.797 357.243 300.362 360.359 303.423 367.36C304.417 368.934 306.774 372.468 307.551 373.972C324.429 395.016 343.963 402.978 368.059 412.651C376.253 414.972 384.673 417.034 392.781 419.471C420.963 424.501 444.424 425.989 472.937 420.023C479.842 417.807 489.705 415.492 497.052 413.369C499.306 412.564 501.549 411.73 503.782 410.869C524.419 402.836 542.964 392.442 552.151 371.608C552.674 369.756 553.097 367.462 553.503 365.548C553.994 357.712 553.879 357.447 552.725 349.661C558.219 350.864 563.679 351.297 569.24 352.622C579.126 354.976 587.559 359.378 596.737 363.518C598.739 364.401 597.81 364.509 600.447 365.243C603.95 366.491 607.538 369.014 610.621 371.148C624.208 378.737 647.005 400.886 656.796 412.773C659.072 415.048 660.796 416.942 662.909 419.376C672.685 431.332 684.033 446.099 691.824 459.275L695.852 464.928C697.072 466.588 698.274 468.261 699.456 469.948C701.938 469.92 705.293 469.761 707.685 470.072C730.406 470.276 753.172 469.909 775.897 469.944C779.675 469.949 783.365 469.929 787.134 469.664C790.086 474.343 794.374 478.722 796.74 482.533C788.623 505.952 777.899 531.309 769.053 554.73L746.58 613.181C742.48 623.884 738.198 636.266 733.729 646.732C733.332 647.806 732.41 650.576 731.847 651.414C731.25 652.967 730.462 654.866 730.001 656.42C733.892 664.337 744.136 679.353 749.244 687.22L782.677 738.627C789.977 749.719 796.985 761.005 804.243 772.125C805.489 774.035 806.699 775.946 808.145 777.713C820.78 781.016 829.705 785.267 836.659 796.858C841.767 805.372 843.724 818.152 841.032 827.711C840.555 829.151 840.278 830.733 839.88 832.232C838.11 838.89 835.104 844.668 832.267 850.876C832.785 852.146 834.213 854.19 835.825 853.846C852.256 850.348 869.139 849.429 885.898 848.842C897.335 847.625 914.729 850.362 923.674 857.948C929.427 862.828 930.27 864.817 933.874 870.868L934.041 872.328C936.687 885.707 925.902 899.944 915.013 906.506C907.888 910.8 900.188 914.313 892.805 918.184C874.785 927.615 856.703 936.928 838.56 946.124C829.852 950.585 821.167 955.092 812.507 959.645C808.579 961.699 798.84 967.308 795.074 967.984C784.486 969.885 769.403 967.809 761.024 960.507L760.129 959.31C754.001 955.463 750.586 946.07 747.555 939.764C743.377 931.074 739.579 922.225 735.105 913.664C725.035 916.148 718.438 915.442 708.614 913.68C705.629 913.444 698.886 911.155 696.176 909.784C685.764 904.515 679.651 899.066 675.653 888.128C671.844 899.831 669.268 906.441 657.782 912.915C624.383 931.741 588.98 947.456 554.692 964.662C551.166 966.43 546.393 968.725 542.625 969.639C531.299 972.388 513.143 971.444 504.109 963.233L503.154 962.278C496.287 958.764 484.984 929.422 481.498 920.64C467.828 928.111 455.872 933.649 440.307 935.71C415.821 938.952 393.165 934.298 373.066 920.03C370.398 922.071 365.078 926.523 362.161 927.295C362.019 927.382 361.878 927.469 361.736 927.555C333.025 942.56 296.208 945.852 265.425 936.397C226.966 924.584 196.058 898.692 177.556 863.115C165.687 840.295 159.742 813.28 162.369 787.507C163.267 778.69 166.781 766.725 169.147 757.962C172.202 746.643 175.347 734.56 178.804 723.384L179.194 722.214C181.133 713.395 184.568 701.68 186.873 692.516C183.289 692.599 180.941 692.702 177.381 692.261L176.246 692.772C174.63 693.325 170.899 693.343 169.044 693.391C153.253 693.801 139.764 689.8 125.539 683.434L120.964 680.809C112.905 677.082 104.863 668.411 99.828 661.249C89.4147 646.434 87.8256 629.231 90.9582 611.806L92.2627 605.45C95.8255 591.058 101.795 578.338 105.645 564.454C106.451 562.607 107.433 559.461 108.127 557.468C109.449 555.202 112.411 545.946 113.441 543.053C116.821 533.557 119.889 523.858 123.618 514.481C124.262 512.467 124.957 510.47 125.703 508.492C126.886 503.701 131.171 493.012 132.948 487.936C134.504 483.491 138.39 472.363 140.346 468.498C141.159 466.3 142.004 464.318 142.925 462.174C150.586 443.871 156.424 434.296 168.157 418.444C169.977 416.13 171.22 414.514 173.339 412.419C183.141 397.946 207.241 381.974 222.352 373.171C225.568 371.335 231.406 368.812 234.924 367.159C238.816 363.89 273.199 353.221 280.68 351.88C285.852 350.952 293.489 350.09 299.082 349.683Z"/><path fill="#EDE7DE" d="M299.082 349.683C299.797 357.243 300.362 360.359 303.423 367.36C304.417 368.934 306.774 372.468 307.551 373.972C324.429 395.016 343.963 402.978 368.059 412.651C376.253 414.972 384.673 417.034 392.781 419.471C420.963 424.501 444.424 425.989 472.937 420.023C479.842 417.807 489.705 415.492 497.052 413.369C499.306 412.564 501.549 411.73 503.782 410.869C524.419 402.836 542.964 392.442 552.151 371.608C552.674 369.756 553.097 367.462 553.503 365.548C553.994 357.712 553.879 357.447 552.725 349.661C558.219 350.864 563.679 351.297 569.24 352.622C579.126 354.976 587.559 359.378 596.737 363.518C598.739 364.401 597.81 364.509 600.447 365.243C603.95 366.491 607.538 369.014 610.621 371.148C624.208 378.737 647.005 400.886 656.796 412.773C659.072 415.048 660.796 416.942 662.909 419.376C672.685 431.332 684.033 446.099 691.824 459.275L695.852 464.928C697.072 466.588 698.274 468.261 699.456 469.948C701.938 469.92 705.293 469.761 707.685 470.072C730.406 470.276 753.172 469.909 775.897 469.944C779.675 469.949 783.365 469.929 787.134 469.664C790.086 474.343 794.374 478.722 796.74 482.533C788.623 505.952 777.899 531.309 769.053 554.73L746.58 613.181C742.48 623.884 738.198 636.266 733.729 646.732C720.291 647.148 705.459 646.897 691.935 646.881L620.908 646.814C567.283 646.811 513.199 647.489 459.6 646.945L455.743 647.006C451.416 646.938 447.087 647.012 442.764 647.229C445.152 633.334 444.918 627.302 443.097 613.744C443.045 613.577 442.174 610.854 442.859 610.788C447.712 610.317 453.818 610.458 458.725 610.69L461.168 604.3C464.588 592.876 473.118 573.333 477.705 562.114C407.394 561.397 336.256 562.86 266.01 561.943L263.549 569.614C255.328 569.684 247.107 569.647 238.887 569.504C226.703 595.667 212.853 622.543 199.92 648.479L186.957 674.43C184.383 679.57 180.525 687.542 177.381 692.261L176.246 692.772C174.63 693.325 170.899 693.343 169.044 693.391C153.253 693.801 139.764 689.8 125.539 683.434L120.964 680.809C112.905 677.082 104.863 668.411 99.828 661.249C89.4147 646.434 87.8256 629.231 90.9582 611.806L92.2627 605.45C95.8255 591.058 101.795 578.338 105.645 564.454C106.451 562.607 107.433 559.461 108.127 557.468C109.449 555.202 112.411 545.946 113.441 543.053C116.821 533.557 119.889 523.858 123.618 514.481C124.262 512.467 124.957 510.47 125.703 508.492C126.886 503.701 131.171 493.012 132.948 487.936C134.504 483.491 138.39 472.363 140.346 468.498C141.159 466.3 142.004 464.318 142.925 462.174C150.586 443.871 156.424 434.296 168.157 418.444C169.977 416.13 171.22 414.514 173.339 412.419C183.141 397.946 207.241 381.974 222.352 373.171C225.568 371.335 231.406 368.812 234.924 367.159C238.816 363.89 273.199 353.221 280.68 351.88C285.852 350.952 293.489 350.09 299.082 349.683Z"/><path fill="#0A0706" d="M523.403 482.441L796.74 482.533C788.623 505.952 777.899 531.309 769.053 554.73L746.58 613.181C742.48 623.884 738.198 636.266 733.729 646.732C720.291 647.148 705.459 646.897 691.935 646.881L620.908 646.814C567.283 646.811 513.199 647.489 459.6 646.945C459.968 645.149 463.272 636.876 464.071 634.763C468.103 624.102 472.654 613.51 476.806 602.902C492.752 562.909 508.285 522.753 523.403 482.441Z"/><path fill="white" d="M642.342 490.202C647.865 489.404 664.359 490.187 668.637 493.851C675.006 499.304 658.32 501.9 655.624 501.988C649.06 502.463 634.487 502.604 629.267 499.236C619.058 492.648 639.957 490.442 642.342 490.202Z"/><path fill="#F77618" d="M280.137 509.008C282.61 502.793 290.991 479.333 295.237 476.086C296.982 475.783 298.057 476.822 298.642 478.426C298.079 484.311 289.75 501.896 287.49 508.613C357.772 508.944 428.056 508.903 498.338 508.491C497.596 510.558 496.742 513.194 495.856 515.146C491.489 525.646 483.571 545.059 480.226 555.66L477.705 562.114C407.394 561.397 336.256 562.86 266.01 561.943L263.549 569.614C255.328 569.684 247.107 569.647 238.887 569.504C226.703 595.667 212.853 622.543 199.92 648.479L186.957 674.43C184.383 679.57 180.525 687.542 177.381 692.261L176.246 692.772C174.63 693.325 170.899 693.343 169.044 693.391C153.253 693.801 139.764 689.8 125.539 683.434L120.964 680.809C112.905 677.082 104.863 668.411 99.828 661.249C89.4147 646.434 87.8256 629.231 90.9582 611.806L92.2627 605.45C95.8255 591.058 101.795 578.338 105.645 564.454C106.451 562.607 107.433 559.461 108.127 557.468C109.449 555.202 112.411 545.946 113.441 543.053C116.821 533.557 119.889 523.858 123.618 514.481C124.262 512.467 124.957 510.47 125.703 508.492C177.346 510.598 228.491 508.974 280.137 509.008Z"/><path fill="#EDE7DE" d="M284.812 515.108L422.521 514.997C446.746 515.002 471.683 514.731 495.856 515.146C491.489 525.646 483.571 545.059 480.226 555.66C459.699 555.141 436.348 555.647 415.535 555.586L268.579 555.529C273.448 542.202 279.446 528.38 284.812 515.108Z"/><path fill="#EDE7DE" d="M108.127 557.468C109.449 555.202 112.411 545.946 113.441 543.053C116.821 533.557 119.889 523.858 123.618 514.481C126.362 515.096 133.751 515.125 136.895 515.213C146.677 515.5 156.462 515.648 166.248 515.655C203.434 515.788 240.903 515.006 278.049 515.43C272.222 527.459 266.204 543.308 261.337 555.985C210.274 555.211 158.895 558.204 108.127 557.468Z"/><path fill="#EDE7DE" d="M125.539 683.434C128.2 680.824 135.874 665.14 138.294 660.745C145.75 647.207 153.304 633.118 160.841 619.672C164.675 612.832 172.359 598.501 176.938 592.691C189.171 577.171 213.53 570.262 232.555 569.472C214.468 599.767 200.637 635.158 183.533 666.274C181.604 669.784 171.779 689.227 171.287 692.023C172.685 692.895 174.531 692.726 176.246 692.772C174.63 693.325 170.899 693.343 169.044 693.391C153.253 693.801 139.764 689.8 125.539 683.434Z"/><path fill="#EDE7DE" d="M105.645 564.454C116.281 563.567 131.657 563.752 142.647 563.589C160.623 563.322 179.315 562.799 197.243 562.918C200.841 563.248 221.987 562.291 222.497 563.857C207.183 566.38 197.378 569.281 184.2 577.885C170.348 586.929 169.508 592.499 161.31 605.602L92.2627 605.45C95.8255 591.058 101.795 578.338 105.645 564.454Z"/><path fill="#EDE7DE" d="M90.9582 611.806C113.072 611.832 135.609 611.749 157.713 612.099L133.436 655.953C130.39 661.514 122.287 675.478 120.964 680.809C112.905 677.082 104.863 668.411 99.828 661.249C89.4147 646.434 87.8256 629.231 90.9582 611.806Z"/><path fill="#EDE7DE" d="M245.298 562.096C249.215 561.86 255.696 562.071 259.652 562.17C255.334 570.933 257.04 565.393 246.753 564.397C243.442 564.076 240.638 563.567 237.233 563.383C237.26 563.239 237.288 563.095 237.316 562.95C237.494 562.791 243.529 562.574 245.298 562.096Z"/><path fill="#FCD5B3" d="M197.243 562.918C203.543 562.134 214.684 562.716 221.5 562.484C229.174 562.223 237.67 561.864 245.298 562.096C243.529 562.574 237.494 562.791 237.316 562.95C237.288 563.095 237.26 563.239 237.233 563.383C233.172 563.523 226.273 563.852 222.497 563.857C221.987 562.291 200.841 563.248 197.243 562.918Z"/><path fill="#EDE7DE" d="M140.346 468.498C178.799 467.264 218.923 467.209 257.497 466.963C317.649 466.481 377.803 466.303 437.957 466.429L536.233 466.567L567.318 466.47C571.77 466.439 576.211 466.324 580.66 466.259C582.44 466.233 583.625 467.904 584.005 469.475L583.607 470.417C579.194 471.464 566.404 470.688 561.006 470.569C551.271 470.451 541.536 470.411 531.8 470.45C526.982 470.425 517.862 470.093 513.313 470.449C508.177 483.122 503.445 495.867 498.338 508.491C428.056 508.903 357.772 508.944 287.49 508.613C289.75 501.896 298.079 484.311 298.642 478.426C298.057 476.822 296.982 475.783 295.237 476.086C290.991 479.333 282.61 502.793 280.137 509.008C228.491 508.974 177.346 510.598 125.703 508.492C126.886 503.701 131.171 493.012 132.948 487.936C134.504 483.491 138.39 472.363 140.346 468.498Z"/><defs><linearGradient id="gradient_0" gradientUnits="userSpaceOnUse" x1="478.28439" y1="643.80524" x2="466.17706" y2="443.31314"><stop offset="0" stop-color="#E44C02"/><stop offset="1" stop-color="#F67117"/></linearGradient></defs><path fill="url(#gradient_0)" d="M581.301 460.035C579.903 454.686 574.761 440.126 578.419 436.184C580.319 435.434 579.434 435.419 581.14 435.839C583.777 438.589 586.794 454.971 587.803 459.46C621.859 459.339 657.85 458.126 691.824 459.275L695.852 464.928C697.072 466.588 698.274 468.261 699.456 469.948C701.938 469.92 705.293 469.761 707.685 470.072C730.406 470.276 753.172 469.909 775.897 469.944C779.675 469.949 783.365 469.929 787.134 469.664C790.086 474.343 794.374 478.722 796.74 482.533L523.403 482.441C508.285 522.753 492.752 562.909 476.806 602.902C472.654 613.51 468.103 624.102 464.071 634.763C463.272 636.876 459.968 645.149 459.6 646.945L455.743 647.006C451.416 646.938 447.087 647.012 442.764 647.229C445.152 633.334 444.918 627.302 443.097 613.744C443.045 613.577 442.174 610.854 442.859 610.788C447.712 610.317 453.818 610.458 458.725 610.69L461.168 604.3C464.588 592.876 473.118 573.333 477.705 562.114L480.226 555.66C483.571 545.059 491.489 525.646 495.856 515.146C496.742 513.194 497.596 510.558 498.338 508.491C503.445 495.867 508.177 483.122 513.313 470.449C517.862 470.093 526.982 470.425 531.8 470.45C541.536 470.411 551.271 470.451 561.006 470.569C566.404 470.688 579.194 471.464 583.607 470.417L584.005 469.475C583.625 467.904 582.44 466.233 580.66 466.259C576.211 466.324 571.77 466.439 567.318 466.47L536.233 466.567L437.957 466.429C377.803 466.303 317.649 466.481 257.497 466.963C218.923 467.209 178.799 467.264 140.346 468.498C141.159 466.3 142.004 464.318 142.925 462.174C289.038 459.867 435.172 459.154 581.301 460.035Z"/><path fill="#0A0706" d="M513.313 470.449C515.549 474.437 517.368 476.947 520.485 480.365L490.66 557.225C479.054 586.556 466.417 617.401 455.743 647.006C451.416 646.938 447.087 647.012 442.764 647.229C445.152 633.334 444.918 627.302 443.097 613.744C443.045 613.577 442.174 610.854 442.859 610.788C447.712 610.317 453.818 610.458 458.725 610.69L461.168 604.3C464.588 592.876 473.118 573.333 477.705 562.114L480.226 555.66C483.571 545.059 491.489 525.646 495.856 515.146C496.742 513.194 497.596 510.558 498.338 508.491C503.445 495.867 508.177 483.122 513.313 470.449Z"/><path fill="#EDE7DE" d="M443.097 613.744C443.045 613.577 442.174 610.854 442.859 610.788C447.712 610.317 453.818 610.458 458.725 610.69C457.21 614.087 455.956 618.231 454.579 621.812C451.441 614.757 450.437 613.889 443.097 613.744Z"/><path fill="#EDE7DE" d="M695.852 464.928C697.072 466.588 698.274 468.261 699.456 469.948C701.938 469.92 705.293 469.761 707.685 470.072C702.15 470.914 682.79 470.514 676.188 470.605C647.451 470.998 618.712 471.144 589.973 471.042L588.922 465.82C598.365 465.417 609.646 465.601 619.205 465.557L670.11 465.29C673.724 465.278 693.421 465.592 695.852 464.928Z"/><path fill="#EDE7DE" d="M299.082 349.683C299.797 357.243 300.362 360.359 303.423 367.36C304.417 368.934 306.774 372.468 307.551 373.972C324.429 395.016 343.963 402.978 368.059 412.651C363.363 413.903 322.988 412.619 315.478 412.585L173.339 412.419C183.141 397.946 207.241 381.974 222.352 373.171C225.568 371.335 231.406 368.812 234.924 367.159C238.816 363.89 273.199 353.221 280.68 351.88C285.852 350.952 293.489 350.09 299.082 349.683Z"/><path fill="#EDE7DE" d="M299.082 349.683C299.797 357.243 300.362 360.359 303.423 367.36C298.636 367.836 284.4 367.533 279.1 367.467C264.669 367.286 249.209 367.782 234.924 367.159C238.816 363.89 273.199 353.221 280.68 351.88C285.852 350.952 293.489 350.09 299.082 349.683Z"/><path fill="#F77618" d="M303.423 367.36C304.417 368.934 306.774 372.468 307.551 373.972C284.397 373.587 261.124 374.279 237.962 373.734C232.985 373.617 227.222 373.828 222.352 373.171C225.568 371.335 231.406 368.812 234.924 367.159C249.209 367.782 264.669 367.286 279.1 367.467C284.4 367.533 298.636 367.836 303.423 367.36Z"/><path fill="#EDE7DE" d="M552.725 349.661C558.219 350.864 563.679 351.297 569.24 352.622C579.126 354.976 587.559 359.378 596.737 363.518C598.739 364.401 597.81 364.509 600.447 365.243C603.95 366.491 607.538 369.014 610.621 371.148C624.208 378.737 647.005 400.886 656.796 412.773C604.73 413.667 552.43 412.842 500.34 413.906C498.97 413.934 498.292 413.928 497.052 413.369C499.306 412.564 501.549 411.73 503.782 410.869C524.419 402.836 542.964 392.442 552.151 371.608C552.674 369.756 553.097 367.462 553.503 365.548C553.994 357.712 553.879 357.447 552.725 349.661Z"/><path fill="#EDE7DE" d="M552.725 349.661C558.219 350.864 563.679 351.297 569.24 352.622C579.126 354.976 587.559 359.378 596.737 363.518C598.739 364.401 597.81 364.509 600.447 365.243C584.987 365.679 569.005 365.458 553.503 365.548C553.994 357.712 553.879 357.447 552.725 349.661Z"/><path fill="#F77618" d="M553.503 365.548C569.005 365.458 584.987 365.679 600.447 365.243C603.95 366.491 607.538 369.014 610.621 371.148C591.394 371.802 571.464 371.174 552.151 371.608C552.674 369.756 553.097 367.462 553.503 365.548Z"/><path fill="#F77618" d="M173.339 412.419L315.478 412.585C322.988 412.619 363.363 413.903 368.059 412.651C376.253 414.972 384.673 417.034 392.781 419.471C386.25 419.975 374.505 419.543 367.575 419.513L321.636 419.506C286.381 419.604 251.126 419.379 215.876 418.833C200.081 418.671 183.888 418.836 168.157 418.444C169.977 416.13 171.22 414.514 173.339 412.419Z"/><path fill="#F77618" d="M656.796 412.773C659.072 415.048 660.796 416.942 662.909 419.376C637.474 418.722 610.902 419.196 585.426 419.445C568.564 419.448 551.703 419.54 534.842 419.722C520.363 419.947 505.882 420.059 491.402 420.056C487.143 420.089 476.197 420.719 472.937 420.023C479.842 417.807 489.705 415.492 497.052 413.369C498.292 413.928 498.97 413.934 500.34 413.906C552.43 412.842 604.73 413.667 656.796 412.773Z"/><path fill="#CD9387" d="M565.559 674.905C583.021 674.627 718.796 675.89 721.937 674.095C725.963 671.794 728.221 660.729 730.001 656.42C733.892 664.337 744.136 679.353 749.244 687.22L782.677 738.627C789.977 749.719 796.985 761.005 804.243 772.125C805.489 774.035 806.699 775.946 808.145 777.713C820.78 781.016 829.705 785.267 836.659 796.858C841.767 805.372 843.724 818.152 841.032 827.711C840.555 829.151 840.278 830.733 839.88 832.232C838.11 838.89 835.104 844.668 832.267 850.876C832.785 852.146 834.213 854.19 835.825 853.846C852.256 850.348 869.139 849.429 885.898 848.842C897.335 847.625 914.729 850.362 923.674 857.948C929.427 862.828 930.27 864.817 933.874 870.868L934.041 872.328C936.687 885.707 925.902 899.944 915.013 906.506C907.888 910.8 900.188 914.313 892.805 918.184C874.785 927.615 856.703 936.928 838.56 946.124C829.852 950.585 821.167 955.092 812.507 959.645C808.579 961.699 798.84 967.308 795.074 967.984C784.486 969.885 769.403 967.809 761.024 960.507L760.129 959.31C754.001 955.463 750.586 946.07 747.555 939.764C743.377 931.074 739.579 922.225 735.105 913.664C725.035 916.148 718.438 915.442 708.614 913.68C705.629 913.444 698.886 911.155 696.176 909.784C685.764 904.515 679.651 899.066 675.653 888.128C671.844 899.831 669.268 906.441 657.782 912.915C624.383 931.741 588.98 947.456 554.692 964.662C551.166 966.43 546.393 968.725 542.625 969.639C531.299 972.388 513.143 971.444 504.109 963.233L503.154 962.278C496.287 958.764 484.984 929.422 481.498 920.64C480.844 919.188 480.169 917.15 479.606 915.613C478.055 911.532 472.963 904.822 470.304 900.913C466.611 895.581 463.098 890.125 459.772 884.556C464.817 878.619 468.97 874.165 474.765 868.825C490.561 854.269 521.793 836.34 543.142 833.352C563.503 833.559 565.04 842.829 578.023 855.179C579.776 853.531 580.899 851.483 582.072 849.412C592.799 830.481 591.61 805.084 572.312 792.202C566.218 788.134 561.514 786.646 554.441 784.72C542.181 761.906 528.161 736.56 516.711 713.471C532.462 700.318 550.108 688.277 565.559 674.905Z"/><path fill="#F2C010" d="M791.493 828.651C803.446 827.378 806.191 827.276 816.434 834.767C821.259 838.296 829.026 850.211 832.267 850.876C832.785 852.146 834.213 854.19 835.825 853.846C852.256 850.348 869.139 849.429 885.898 848.842C897.335 847.625 914.729 850.362 923.674 857.948C929.427 862.828 930.27 864.817 933.874 870.868L934.041 872.328C936.687 885.707 925.902 899.944 915.013 906.506C907.888 910.8 900.188 914.313 892.805 918.184C874.785 927.615 856.703 936.928 838.56 946.124C829.852 950.585 821.167 955.092 812.507 959.645C808.579 961.699 798.84 967.308 795.074 967.984C784.486 969.885 769.403 967.809 761.024 960.507L760.129 959.31C754.001 955.463 750.586 946.07 747.555 939.764C743.377 931.074 739.579 922.225 735.105 913.664C725.035 916.148 718.438 915.442 708.614 913.68C705.239 904.877 710.187 893.56 715.335 886.307C728.042 863.513 766.571 836.907 791.493 828.651Z"/><path fill="#F896AC" d="M885.898 848.842C897.335 847.625 914.729 850.362 923.674 857.948C929.427 862.828 930.27 864.817 933.874 870.868L934.041 872.328C936.687 885.707 925.902 899.944 915.013 906.506C907.888 910.8 900.188 914.313 892.805 918.184C874.785 927.615 856.703 936.928 838.56 946.124C829.852 950.585 821.167 955.092 812.507 959.645C808.579 961.699 798.84 967.308 795.074 967.984C784.486 969.885 769.403 967.809 761.024 960.507L760.129 959.31C767.415 940.291 804.804 924.446 822.401 915.475C840.291 906.354 860.024 898.235 878.326 889.825C878.006 888.215 877.711 886.6 877.442 884.981C875.977 875.885 878.019 866.269 883.034 858.513C884.698 855.938 887.914 852.331 889.979 849.477C888.738 848.7 887.602 848.935 885.898 848.842Z"/><path fill="#F896AC" d="M885.898 848.842C897.335 847.625 914.729 850.362 923.674 857.948C929.427 862.828 930.27 864.817 933.874 870.868C918.761 874.07 892.611 883.67 878.326 889.825C878.006 888.215 877.711 886.6 877.442 884.981C875.977 875.885 878.019 866.269 883.034 858.513C884.698 855.938 887.914 852.331 889.979 849.477C888.738 848.7 887.602 848.935 885.898 848.842Z"/><path fill="#0A0706" d="M933.874 870.868L934.041 872.328C923.088 875.773 911.823 878.844 901.069 882.87C874.26 892.905 848.324 904.93 822.548 917.412C805.386 925.722 786.928 934.571 772.044 946.637C767.32 950.467 763.917 955.208 761.024 960.507L760.129 959.31C767.415 940.291 804.804 924.446 822.401 915.475C840.291 906.354 860.024 898.235 878.326 889.825C892.611 883.67 918.761 874.07 933.874 870.868Z"/><path fill="#0A0706" d="M715.335 886.307L732.963 910.277C733.82 911.418 734.436 912.41 735.105 913.664C725.035 916.148 718.438 915.442 708.614 913.68C705.239 904.877 710.187 893.56 715.335 886.307Z"/><path fill="#0A0706" d="M834.084 854.507C836.597 855.246 830.938 857.356 830.489 857.524C819.306 861.713 812.186 867.398 803.922 875.823C803.162 875.731 802.725 875.292 803.263 874.585C810.98 864.438 822.39 858.59 834.084 854.507Z"/><path fill="#F2C010" d="M543.142 833.352C563.503 833.559 565.04 842.829 578.023 855.179L579.782 858.364C581.235 858.06 581.56 858.212 583.058 858.432C584.613 857.809 585.758 857.599 587.378 857.202C599.335 856.075 617.769 855.34 629.658 856.486C616.011 868.087 614.235 880.214 616.607 897.394C592.464 907.155 514.315 937.892 503.974 959.983C503.626 960.727 503.395 961.495 503.154 962.278C496.287 958.764 484.984 929.422 481.498 920.64C480.844 919.188 480.169 917.15 479.606 915.613C478.055 911.532 472.963 904.822 470.304 900.913C466.611 895.581 463.098 890.125 459.772 884.556C464.817 878.619 468.97 874.165 474.765 868.825C490.561 854.269 521.793 836.34 543.142 833.352Z"/><path fill="#0A0706" d="M579.782 858.364C581.235 858.06 581.56 858.212 583.058 858.432C580.604 860.307 576.191 861.232 572.999 862.501C569.521 863.876 566.173 865.561 562.996 867.536C560.277 869.189 558.217 870.908 555.681 872.685C553.584 874.155 550.691 878.88 548.69 877.946C548.414 876.654 549.775 875.386 550.602 874.601C556.717 868.801 563.98 864.27 571.773 861.091C574.385 860.026 577.163 859.444 579.782 858.364Z"/><path fill="#F896AC" d="M504.109 963.233C504.549 962.753 505.182 961.634 505.558 961.011C508.614 956.036 512.546 951.656 517.162 948.082C531.589 936.861 549.571 929.121 565.98 921.256C601.289 904.332 636.173 890.671 674.032 880.645C674.729 883.38 675.186 885.324 675.653 888.128C671.844 899.831 669.268 906.441 657.782 912.915C624.383 931.741 588.98 947.456 554.692 964.662C551.166 966.43 546.393 968.725 542.625 969.639C531.299 972.388 513.143 971.444 504.109 963.233Z"/><path fill="white" d="M644.246 816.114C651.822 828.844 660.708 841.109 668.991 853.396C670.243 855.252 674.176 860.265 674.851 861.879C673.482 866.737 672.856 870.208 672.426 875.294C659.934 858.928 649.347 857.664 629.658 856.486C617.769 855.34 599.335 856.075 587.378 857.202L586.857 856.674C588.258 855.013 591.443 853.242 593.319 851.951C610.403 840.186 626.807 827.366 644.246 816.114Z"/><path fill="#F896AC" d="M629.658 856.486C649.347 857.664 659.934 858.928 672.426 875.294C672.906 877.281 673.255 877.228 672.637 878.738C652.312 885.503 637.677 888.382 616.607 897.394C614.235 880.214 616.011 868.087 629.658 856.486Z"/><path fill="#F77618" d="M694.364 829.114C689.079 823.006 681.849 810.936 677.276 803.811C668.51 790.11 659.562 776.525 650.435 763.06C646.559 757.391 641.652 749.277 636.177 745.188C630.385 740.863 623.319 742.288 619.739 748.835C609.898 766.83 623.975 785.862 634.108 800.162C636.648 803.774 642.672 810.218 639.859 814.47L638.583 814.688C637.995 814.523 636.487 814.107 636.122 813.606C630.664 806.119 623.741 796.522 618.829 788.81C612.064 778.167 607.925 765.256 610.965 752.696C613.553 742.007 622.77 734.372 633.861 737.734C636.399 738.503 641.421 740.775 643.238 742.844C650.771 751.417 657.091 761.576 663.472 771.063C671.082 782.221 678.485 793.518 685.676 804.95C689.879 811.504 694.527 818.358 698.205 825.167L694.364 829.114Z"/><path fill="#0A0706" d="M698.205 825.167C727.251 797.855 761.641 778.996 802.266 776.987C803.528 776.925 803.758 777.085 804.662 777.795L804.299 778.6C802.43 779.125 795.556 779.375 793.014 779.651C786.699 780.352 780.446 781.527 774.307 783.166C735.328 793.388 682.611 827.151 674.88 869.859C674.473 872.106 674.655 879.787 674.032 880.645C636.173 890.671 601.289 904.332 565.98 921.256C549.571 929.121 531.589 936.861 517.162 948.082C512.546 951.656 508.614 956.036 505.558 961.011C505.182 961.634 504.549 962.753 504.109 963.233L503.154 962.278C503.395 961.495 503.626 960.727 503.974 959.983C514.315 937.892 592.464 907.155 616.607 897.394C637.677 888.382 652.312 885.503 672.637 878.738C673.255 877.228 672.906 877.281 672.426 875.294C672.856 870.208 673.482 866.737 674.851 861.879C679.624 847.575 684.368 840.38 694.364 829.114L698.205 825.167Z"/><path fill="#0A0706" d="M791.493 828.651C799.338 824.228 818.186 819.803 827.503 821.182C833.074 822.006 836.872 823.883 841.032 827.711C840.555 829.151 840.278 830.733 839.88 832.232C838.11 838.89 835.104 844.668 832.267 850.876C829.026 850.211 821.259 838.296 816.434 834.767C806.191 827.276 803.446 827.378 791.493 828.651Z"/><path fill="#0A0706" d="M458.147 651.017L665.894 651.108C672.927 651.103 727.843 650.182 731.847 651.414C731.25 652.967 730.462 654.866 730.001 656.42C728.221 660.729 725.963 671.794 721.937 674.095C718.796 675.89 583.021 674.627 565.559 674.905C550.108 688.277 532.462 700.318 516.711 713.471C528.161 736.56 542.181 761.906 554.441 784.72C561.514 786.646 566.218 788.134 572.312 792.202C591.61 805.084 592.799 830.481 582.072 849.412C580.899 851.483 579.776 853.531 578.023 855.179C565.04 842.829 563.503 833.559 543.142 833.352C521.793 836.34 490.561 854.269 474.765 868.825C468.97 874.165 464.817 878.619 459.772 884.556C463.098 890.125 466.611 895.581 470.304 900.913C472.963 904.822 478.055 911.532 479.606 915.613C480.169 917.15 480.844 919.188 481.498 920.64C467.828 928.111 455.872 933.649 440.307 935.71C415.821 938.952 393.165 934.298 373.066 920.03C370.398 922.071 365.078 926.523 362.161 927.295C362.452 926.277 362.757 925.514 363.618 924.834C377.409 913.957 391.641 903.648 405.377 892.699C409.504 889.409 413.718 886.187 418.219 883.425C417.906 881.117 417.694 878.444 416.554 876.416C412.102 868.491 406.995 860.761 402.184 853.052L372.723 805.906C368.347 798.826 360.319 786.226 356.711 779.009C359.488 779.633 360.948 782.667 362.57 785.1C375.35 807.803 391.229 830.773 404.4 853.413C408.408 860.302 413.324 867.038 417.229 874.052C420.371 856.191 424.894 848.395 436.672 834.571L441.128 829.933C444.906 826.227 448.857 822.703 452.97 819.372C479.245 797.815 517.987 781.196 552.279 784.534C547.301 776.028 543.036 767.067 538.257 758.448C523.01 730.945 508.986 702.239 493.653 674.851C479.385 675.052 463.17 675.19 448.975 674.657C451.934 666.764 454.849 658.767 458.147 651.017Z"/><path fill="#CD9387" d="M449.601 913.73C428.13 907.525 415.435 889.772 420.393 867.378C425.768 843.1 449.346 822.348 469.941 809.505C494.039 795.055 527.898 781.004 556.176 787.283C583.244 793.293 590.523 815.081 584.61 839.417C575.638 827.311 564.154 829.475 551.064 831.512C548.37 831.932 545.721 832.458 543.142 833.352C521.793 836.34 490.561 854.269 474.765 868.825C468.97 874.165 464.817 878.619 459.772 884.556C452.072 894.355 448.236 901.259 449.601 913.73Z"/><path fill="#CD9387" d="M418.316 885.278C426.522 913.348 453.057 921.419 479.606 915.613C480.169 917.15 480.844 919.188 481.498 920.64C467.828 928.111 455.872 933.649 440.307 935.71C415.821 938.952 393.165 934.298 373.066 920.03C377.851 915.84 384.448 911.232 389.614 907.317C399.219 900.02 408.787 892.673 418.316 885.278Z"/><path fill="#EDE7DE" d="M495.953 674.935C517.592 674.371 541.275 674.896 563.036 674.956L542.739 690.668C533.784 697.9 524.352 704.455 515.669 712.032C510.044 700.481 502.075 686.487 495.953 674.935Z"/><path fill="#EDE7DE" d="M266.01 561.943C336.256 562.86 407.394 561.397 477.705 562.114C473.118 573.333 464.588 592.876 461.168 604.3C454.789 603.96 446.854 604.15 440.356 604.148C439.773 603.077 439.153 602.027 438.497 600.999C419.7 571.722 389.299 569.378 357.421 569.938C353.867 570 340.512 570.41 337.502 569.596C334.991 568.79 333.207 568.415 330.807 569.641C328.05 572.76 319.892 594.498 317.695 599.758C306.189 627.308 295.296 655.195 283.991 682.831C282.061 687.549 282.349 695.901 288.02 694.412C295.36 692.485 307.963 675.337 312.845 669.305C315.544 671.96 316.044 672.444 319.38 674.461C327.697 674.843 336.589 674.653 344.96 674.613C344.375 676.233 290.555 718.756 285.091 721.911L282.689 723.903C271.237 723.014 181.506 725.12 178.804 723.384L179.194 722.214C181.133 713.395 184.568 701.68 186.873 692.516C183.289 692.599 180.941 692.702 177.381 692.261C180.525 687.542 184.383 679.57 186.957 674.43L199.92 648.479C212.853 622.543 226.703 595.667 238.887 569.504C247.107 569.647 255.328 569.684 263.549 569.614L266.01 561.943Z"/><path fill="#0A0706" d="M179.194 722.214C214.546 721.718 249.856 722.257 285.091 721.911L282.689 723.903C271.237 723.014 181.506 725.12 178.804 723.384L179.194 722.214Z"/><path fill="#F77618" d="M284.883 570.016L291.214 569.994C279.867 593.695 268.267 617.274 256.416 640.728C248.285 657.064 239.254 676.324 230.453 692.118L223.703 692.035L262.976 612.803C269.67 599.419 277.521 582.745 284.883 570.016Z"/><path fill="#F77618" d="M337.502 569.596C340.512 570.41 353.867 570 357.421 569.938C389.299 569.378 419.7 571.722 438.497 600.999C439.153 602.027 439.773 603.077 440.356 604.148C446.854 604.15 454.789 603.96 461.168 604.3L458.725 610.69C453.818 610.458 447.712 610.317 442.859 610.788C442.174 610.854 443.045 613.577 443.097 613.744C444.918 627.302 445.152 633.334 442.764 647.229C439.626 647.772 433.2 647.639 429.846 647.524L428.098 647.442C423.768 648.254 408.458 648.27 404.05 647.686L402.655 647.391C398.049 648.249 381.106 647.839 375.686 647.83L322.682 647.72C317.42 647.675 304.432 647.226 300.007 647.996C301.988 643.981 305.499 634.132 307.452 629.355L324.708 587.554C326.942 582.18 329.06 576.354 332.028 571.383C332.71 570.241 335.609 570.726 337.502 569.596Z"/><path fill="#0A0706" d="M428.098 647.442C427.986 644.696 428.061 641.645 428.116 638.75C428.443 621.654 417.108 606.397 400.948 601.199C400.512 601.059 396.311 600.059 399.213 599.15C406.747 600.218 416.259 606.86 420.946 612.785C425.671 618.773 428.68 625.933 429.651 633.499C429.995 636.396 430.132 644.614 429.846 647.524L428.098 647.442Z"/><path fill="#0A0706" d="M402.655 647.391C400.83 630.476 398.08 621.621 381.519 613.532C381.195 613.374 381.968 612.624 382.734 612.874C398.528 618.027 404.119 632.367 404.05 647.686L402.655 647.391Z"/><path fill="#CD9387" d="M362.57 785.1C363.365 781.454 361.605 773.622 361.044 769.972C359.627 760.747 363.282 741.366 375.846 743.664C388.295 745.94 398.763 769.621 404.611 779.95C411.452 791.784 418.393 803.558 425.435 815.273C428.957 821.247 433.006 828.985 436.672 834.571C424.894 848.395 420.371 856.191 417.229 874.052C413.324 867.038 408.408 860.302 404.4 853.413C391.229 830.773 375.35 807.803 362.57 785.1Z"/><path fill="#0A0706" d="M312.845 669.305C307.963 675.337 295.36 692.485 288.02 694.412C282.349 695.901 282.061 687.549 283.991 682.831C295.296 655.195 306.189 627.308 317.695 599.758C319.892 594.498 328.05 572.76 330.807 569.641C333.207 568.415 334.991 568.79 337.502 569.596C335.609 570.726 332.71 570.241 332.028 571.383C329.06 576.354 326.942 582.18 324.708 587.554L307.452 629.355C305.499 634.132 301.988 643.981 300.007 647.996C300.495 650.208 300.064 649.886 301.446 651.113C305.09 651.548 313.08 651.293 316.97 651.278L343.792 651.265C380.529 651.356 417.893 650.782 454.447 651.1C450.105 659.96 448.321 666.312 444.678 674.728L386.449 674.87C378.496 674.871 364.078 675.3 356.405 674.723C353.364 674.417 348.181 674.594 344.96 674.613C336.589 674.653 327.697 674.843 319.38 674.461C316.044 672.444 315.544 671.96 312.845 669.305Z"/><path fill="#F77618" d="M344.96 674.613C348.181 674.594 353.364 674.417 356.405 674.723C345.146 682.776 334.863 691.41 323.925 699.877L241.447 764.754C238.951 766.746 226.862 777.388 224.751 777.789C222.702 777.066 223.575 777.629 222.083 775.952C221.896 774.786 221.582 773.661 222.543 772.574C225.82 768.869 230.898 765.127 234.748 762.079L266.995 736.706C269.764 734.54 280.826 726.095 282.689 723.903L285.091 721.911C290.555 718.756 344.375 676.233 344.96 674.613Z"/><path fill="#F77618" d="M356.711 779.009C353.337 771.843 354.076 758.999 356.641 751.715C363.27 732.89 381.771 733.219 392.628 747.909C399.37 757.032 405.022 768.173 410.716 778.064C420.675 795.458 430.813 812.748 441.128 829.933L436.672 834.571C433.006 828.985 428.957 821.247 425.435 815.273C418.393 803.558 411.452 791.784 404.611 779.95C398.763 769.621 388.295 745.94 375.846 743.664C363.282 741.366 359.627 760.747 361.044 769.972C361.605 773.622 363.365 781.454 362.57 785.1C360.948 782.667 359.488 779.633 356.711 779.009Z"/><path fill="#0A0706" d="M333.173 107.14C341.427 96.2865 355.724 83.5743 366.938 76.2682C398.6 55.6591 437.151 48.4656 474.115 56.2689C508.208 63.4935 538.028 83.9807 557 113.214C578.884 111.992 597.412 117.474 612.325 134.566C618.335 141.454 620.828 148.251 623.957 156.663C627.878 156.112 638.222 153.915 641.502 156.269C645.206 158.927 645.58 166.117 642.718 169.807C639.359 174.139 627.394 170.861 625.317 174.457L625.628 174.806C629.153 178.696 633.372 182.013 636.983 185.886C645.503 195.025 650.415 206.455 649.891 219.006C649.137 237.084 638.326 249.061 622.526 256.798C622.514 282.19 604.372 299.554 578.882 297.537C569.067 306.679 562.712 310.653 549.279 312.38C547.078 316.441 544.858 319.356 541.661 322.721C546.323 332.652 547.218 338.566 549.425 349.216L550.534 349.264C551.873 349.315 551.676 349.113 552.725 349.661C553.879 357.447 553.994 357.712 553.503 365.548C553.097 367.462 552.674 369.756 552.151 371.608C542.964 392.442 524.419 402.836 503.782 410.869C501.549 411.73 499.306 412.564 497.052 413.369C489.705 415.492 479.842 417.807 472.937 420.023C444.424 425.989 420.963 424.501 392.781 419.471C384.673 417.034 376.253 414.972 368.059 412.651C343.963 402.978 324.429 395.016 307.551 373.972C306.774 372.468 304.417 368.934 303.423 367.36C300.362 360.359 299.797 357.243 299.082 349.683C299.251 346.218 299.728 339.605 301.037 336.435C304.387 328.32 316.366 304.866 321.047 298.738L321.908 298.699L321.288 298.448L321.881 297.818L322.259 298.029C318.565 311.462 305.89 324.87 302.305 338.667C297.709 356.349 304.932 369.397 316.716 381.889C319.711 377.449 328.91 355.837 331.297 350.158C336.697 337.315 343.481 323.965 348.745 311.267C342.182 305.601 336.3 298.279 329.645 292.155L327.819 290.924C326.568 291.42 324.38 293.053 323.148 293.839C307.911 303.563 286.81 301.69 272.518 290.925C263.562 284.179 256.901 274.601 255.219 263.176C244.702 261.297 236.06 256.722 228.834 248.795C220.268 239.577 215.832 227.263 216.552 214.7C218.028 183.64 240.743 179.573 258.139 159.698C279.488 135.307 295.037 104.918 333.173 107.14Z"/><path fill="#F77618" d="M479.087 177.476C486.86 172.777 495.174 171.674 503.294 176.444C506.25 191.784 508.819 197.398 518.406 209.387C516.332 209.497 514.993 209.664 512.933 209.968C508.711 210.268 491.653 211.949 488.64 213.717C491.078 214.946 517.237 211.9 519.725 210.435C524.412 214.552 529.029 218.421 534.943 220.646C534.643 221.18 534.388 221.697 534.111 222.243C530.031 222.111 525.965 222.416 522.017 222.456C513.045 222.549 501.985 221.937 494.903 228.395C487.393 235.243 487.488 248.141 494.989 254.907C499.619 259.084 503.912 262.549 509.219 265.857C512.308 268.079 524.515 274.539 525.71 276.191C514.37 299.974 497.585 318.617 468.895 315.364C464.672 313.983 461.29 313.259 457.109 311.435C442.141 304.906 431.546 290.472 427.28 274.947C425.544 266.638 416.261 262.208 414.599 273.617C413.116 283.801 419.417 294.948 424.973 303.031C436.277 319.475 462.202 334.57 482.499 334.523C483.467 344.848 483.58 351.526 482.99 361.999C482.24 362.774 482.492 362.632 482.139 362.761C483.248 363.634 483.035 363.102 483.382 364.329C486.207 374.318 489.927 378.043 498.656 383.279C502.398 385.523 507.68 386.238 510.753 387.465C512.753 387.505 514.732 387.482 516.73 387.51C522.685 387.177 526.377 387.068 532.017 384.788C541.841 380.817 543.428 375.82 547.81 367.518C548.561 360.91 549.649 356.173 549.425 349.216L550.534 349.264C551.873 349.315 551.676 349.113 552.725 349.661C553.879 357.447 553.994 357.712 553.503 365.548C553.097 367.462 552.674 369.756 552.151 371.608C542.964 392.442 524.419 402.836 503.782 410.869C501.549 411.73 499.306 412.564 497.052 413.369C489.705 415.492 479.842 417.807 472.937 420.023C444.424 425.989 420.963 424.501 392.781 419.471C384.673 417.034 376.253 414.972 368.059 412.651C343.963 402.978 324.429 395.016 307.551 373.972C306.774 372.468 304.417 368.934 303.423 367.36C300.362 360.359 299.797 357.243 299.082 349.683C299.251 346.218 299.728 339.605 301.037 336.435C304.387 328.32 316.366 304.866 321.047 298.738L321.908 298.699L321.288 298.448L321.881 297.818L322.259 298.029C318.565 311.462 305.89 324.87 302.305 338.667C297.709 356.349 304.932 369.397 316.716 381.889C319.711 377.449 328.91 355.837 331.297 350.158C336.697 337.315 343.481 323.965 348.745 311.267C342.182 305.601 336.3 298.279 329.645 292.155C338.137 283.639 345.462 270.565 346.96 258.584C350.266 232.151 351.645 205.351 355.261 178.941L355.954 177.35L356.89 177.029C358.989 178.748 359.744 185.271 360.343 188.113C362.483 198.257 368.986 207.022 376.354 214.084C390.268 226.508 403.707 230.258 422.017 230.089C453.661 227.585 473.572 208.266 479.087 177.476Z"/><path fill="#EDE7DE" d="M354.085 315.912C362.737 324.263 375.46 332.8 385.744 339.152C376.146 361.521 367.004 384.083 358.326 406.825C342.888 400.118 335.722 396.426 322.067 386.621C324.43 380.09 329.844 369.405 332.859 362.753C339.834 347.094 346.909 331.48 354.085 315.912Z"/><path fill="#EDE7DE" d="M299.082 349.683C299.251 346.218 299.728 339.605 301.037 336.435C304.387 328.32 316.366 304.866 321.047 298.738L321.908 298.699L321.288 298.448L321.881 297.818L322.259 298.029C318.565 311.462 305.89 324.87 302.305 338.667C297.709 356.349 304.932 369.397 316.716 381.889C318.552 383.604 320.097 385.027 322.067 386.621C335.722 396.426 342.888 400.118 358.326 406.825C360.061 407.428 362.409 408.163 364.054 408.85C375.723 414.002 395.39 418.255 407.959 420.344C409.839 420.624 412.082 421.035 413.951 421.064C431.983 423.164 446.832 421.954 464.652 419.69C466.557 419.212 468.92 418.788 470.88 418.378C469.626 413.331 468.518 404.975 467.671 399.656L461.997 362.983C469.357 363.396 474.891 363.277 482.139 362.761C483.248 363.634 483.035 363.102 483.382 364.329C486.207 374.318 489.927 378.043 498.656 383.279C502.398 385.523 507.68 386.238 510.753 387.465C512.753 387.505 514.732 387.482 516.73 387.51C522.685 387.177 526.377 387.068 532.017 384.788C541.841 380.817 543.428 375.82 547.81 367.518C548.561 360.91 549.649 356.173 549.425 349.216L550.534 349.264C551.873 349.315 551.676 349.113 552.725 349.661C553.879 357.447 553.994 357.712 553.503 365.548C553.097 367.462 552.674 369.756 552.151 371.608C542.964 392.442 524.419 402.836 503.782 410.869C501.549 411.73 499.306 412.564 497.052 413.369C489.705 415.492 479.842 417.807 472.937 420.023C444.424 425.989 420.963 424.501 392.781 419.471C384.673 417.034 376.253 414.972 368.059 412.651C343.963 402.978 324.429 395.016 307.551 373.972C306.774 372.468 304.417 368.934 303.423 367.36C300.362 360.359 299.797 357.243 299.082 349.683Z"/><path fill="#0A0706" d="M299.082 349.683C299.251 346.218 299.728 339.605 301.037 336.435C304.387 328.32 316.366 304.866 321.047 298.738L321.908 298.699L321.288 298.448L321.881 297.818L322.259 298.029C318.565 311.462 305.89 324.87 302.305 338.667C297.709 356.349 304.932 369.397 316.716 381.889C318.552 383.604 320.097 385.027 322.067 386.621C335.722 396.426 342.888 400.118 358.326 406.825C360.061 407.428 362.409 408.163 364.054 408.85C375.723 414.002 395.39 418.255 407.959 420.344C409.839 420.624 412.082 421.035 413.951 421.064C431.983 423.164 446.832 421.954 464.652 419.69C466.557 419.212 468.92 418.788 470.88 418.378C488.399 414.615 497.339 411.916 513.754 404.65C516.131 403.586 517.911 402.788 520.091 401.293L519.854 400.853C518.821 398.967 518.497 397.604 518.08 395.495L517.587 392.994C517.226 391.079 516.975 389.431 516.73 387.51C522.685 387.177 526.377 387.068 532.017 384.788C541.841 380.817 543.428 375.82 547.81 367.518C548.561 360.91 549.649 356.173 549.425 349.216L550.534 349.264C551.873 349.315 551.676 349.113 552.725 349.661C553.879 357.447 553.994 357.712 553.503 365.548C553.097 367.462 552.674 369.756 552.151 371.608C542.964 392.442 524.419 402.836 503.782 410.869C501.549 411.73 499.306 412.564 497.052 413.369C489.705 415.492 479.842 417.807 472.937 420.023C444.424 425.989 420.963 424.501 392.781 419.471C384.673 417.034 376.253 414.972 368.059 412.651C343.963 402.978 324.429 395.016 307.551 373.972C306.774 372.468 304.417 368.934 303.423 367.36C300.362 360.359 299.797 357.243 299.082 349.683Z"/><path fill="#EDE7DE" d="M549.425 349.216L550.534 349.264C552.129 355.313 552.281 360.998 551.368 367.159C549.353 383.315 532.478 393.626 520.091 401.293L519.854 400.853C518.821 398.967 518.497 397.604 518.08 395.495L517.587 392.994C517.226 391.079 516.975 389.431 516.73 387.51C522.685 387.177 526.377 387.068 532.017 384.788C541.841 380.817 543.428 375.82 547.81 367.518C548.561 360.91 549.649 356.173 549.425 349.216Z"/><path fill="#FFE0EA" d="M549.425 349.216L550.534 349.264C552.129 355.313 552.281 360.998 551.368 367.159C550.316 363.996 551.503 354.658 550.301 353.849C550.249 353.862 550.179 353.872 550.169 353.953C549.651 358.012 550.117 364.021 547.81 367.518C548.561 360.91 549.649 356.173 549.425 349.216Z"/><path fill="#F77618" d="M510.753 387.465C512.753 387.505 514.732 387.482 516.73 387.51C516.975 389.431 517.226 391.079 517.587 392.994L518.08 395.495C518.497 397.604 518.821 398.967 519.854 400.853L520.091 401.293C517.911 402.788 516.131 403.586 513.754 404.65C513.031 399.167 511.669 393.029 510.753 387.465Z"/><path fill="#EDE7DE" d="M391.362 343.231C403.06 349.59 411.067 352.88 423.896 356.366C417.876 378.066 413.596 399.268 407.959 420.344C395.39 418.255 375.723 414.002 364.054 408.85C373.482 387.632 381.873 364.548 391.362 343.231Z"/><path fill="#DB4E0B" d="M376.354 214.084C390.268 226.508 403.707 230.258 422.017 230.089C423.375 242.063 423.32 253.67 412.503 261.868C399.06 272.057 376.127 270.791 365.474 256.937C360.958 251.157 358.999 243.784 360.05 236.524C361.851 224.089 367.44 220.736 376.354 214.084Z"/><path fill="#EDE7DE" d="M429.876 358.261C436.921 360.357 447.926 361.641 455.429 362.587C455.744 368.013 457.179 375.943 458.023 381.445C459.907 394.248 462.117 407 464.652 419.69C446.832 421.954 431.983 423.164 413.951 421.064C419.512 400.282 424.51 379.147 429.876 358.261Z"/><path fill="#DB4E0B" d="M456.452 275.297C459.589 274.061 463.137 275.57 464.425 278.686C465.712 281.802 464.263 285.375 461.168 286.714C459.121 287.6 456.754 287.312 454.978 285.962C453.201 284.612 452.291 282.409 452.597 280.199C452.902 277.988 454.376 276.115 456.452 275.297Z"/><path fill="#DB4E0B" d="M481.331 259.846C483.488 259.457 485.686 260.26 487.084 261.947C488.483 263.634 488.863 265.944 488.081 267.991C487.298 270.038 485.474 271.504 483.306 271.828C480.025 272.319 476.956 270.084 476.417 266.81C475.877 263.536 478.065 260.434 481.331 259.846Z"/><path fill="#DB4E0B" d="M462.517 256.429C465.74 255.8 468.879 257.846 469.604 261.049C470.328 264.251 468.376 267.45 465.196 268.269C463.054 268.821 460.781 268.164 459.263 266.554C457.745 264.945 457.223 262.637 457.9 260.531C458.577 258.425 460.346 256.853 462.517 256.429Z"/><path fill="#DB4E0B" d="M477.059 277.755C480.158 277.069 483.249 278.936 484.084 281.998C484.919 285.06 483.203 288.238 480.185 289.219C478.099 289.897 475.809 289.372 474.227 287.853C472.644 286.334 472.026 284.068 472.619 281.956C473.211 279.844 474.918 278.229 477.059 277.755Z"/><path fill="#F77618" d="M333.173 107.14C341.427 96.2865 355.724 83.5743 366.938 76.2682C398.6 55.6591 437.151 48.4656 474.115 56.2689C508.208 63.4935 538.028 83.9807 557 113.214C552.375 114.047 547.03 115.012 542.632 116.609C522.377 123.962 506.972 141.457 503.481 162.88C494.578 160.065 487.206 160.922 478.631 164.319C474.215 147.362 465.718 134.123 450.25 125.054C435.843 116.74 418.732 114.466 402.654 118.727C381.781 124.227 365.761 139.068 359.734 159.869C351.237 159.736 342.743 159.481 334.253 159.105C328.157 158.799 321.75 158.216 315.77 158.502C309.225 158.815 308.08 169.608 312.622 173.336C317.858 177.632 351.512 174.502 353.714 177.952C349.321 205.228 348.299 233.313 344.696 260.68C343.432 270.277 335.101 284.593 327.819 290.924C326.568 291.42 324.38 293.053 323.148 293.839C307.911 303.563 286.81 301.69 272.518 290.925C263.562 284.179 256.901 274.601 255.219 263.176C244.702 261.297 236.06 256.722 228.834 248.795C220.268 239.577 215.832 227.263 216.552 214.7C218.028 183.64 240.743 179.573 258.139 159.698C279.488 135.307 295.037 104.918 333.173 107.14Z"/><path fill="#0A0706" d="M521.883 99.6801C529.26 99.4981 537.234 103.023 539.554 110.744C539.597 110.884 539.185 111.368 539.011 111.413C537.756 111.738 537.091 109.725 536.52 109.008C535.069 106.542 532.811 104.685 530.283 103.408C527.955 102.231 526.015 102.092 523.5 101.973C520.09 101.811 518.012 102.288 514.799 103.351C509.611 106.214 506.023 109.961 505.215 116.093C505.106 116.92 505.047 118.679 504.839 119.327C504.449 120.542 503.322 119.299 503.399 118.526C502.945 114.076 504.333 110.423 507.073 106.976C511.212 101.767 515.558 100.378 521.883 99.6801Z"/><path fill="#0A0706" d="M410.536 96.0714C413.208 95.8525 415.911 95.6861 418.496 96.1043C425.601 97.2539 431.804 102.334 433.86 109.279C433.96 109.616 433.933 110.493 433.636 110.688C432.362 111.524 431.921 108.269 431.441 107.771C428.818 102.337 424.938 100.08 419.44 98.1805C410.369 97.2416 403.306 98.4974 398.411 106.991C397.542 108.498 397.91 111.235 396.111 110.955C394.764 109.323 396.333 106.773 397.184 105.307C400.444 99.6892 404.458 97.6352 410.536 96.0714Z"/><path fill="#0A0706" d="M270.759 224.832C270.977 225.041 271.778 225.754 271.682 226.001C269.124 232.581 258.398 258.394 255.716 263.106C253.238 260.514 268.44 229.272 270.759 224.832Z"/><path fill="#0A0706" d="M333.592 107.116C344.66 108.542 367.167 120.352 370.009 131.699C368.987 131.451 368.389 131.466 367.775 130.491C362.082 121.423 353.065 115.791 343.397 111.764C340.622 110.607 334.297 109.579 333.592 107.116Z"/><path fill="#F896AC" d="M505.959 306.717C510.85 302.757 514.709 298.981 518.265 293.722C524.086 303.137 525.753 302.844 533.841 310.086C536.152 312.156 540.228 319.693 541.661 322.721C546.323 332.652 547.218 338.566 549.425 349.216C549.649 356.173 548.561 360.91 547.81 367.518C543.428 375.82 541.841 380.817 532.017 384.788C526.377 387.068 522.685 387.177 516.73 387.51C514.732 387.482 512.753 387.505 510.753 387.465C507.68 386.238 502.398 385.523 498.656 383.279C489.927 378.043 486.207 374.318 483.382 364.329C483.035 363.102 483.248 363.634 482.139 362.761C482.492 362.632 482.24 362.774 482.99 361.999C483.58 351.526 483.467 344.848 482.499 334.523C479.509 327.398 474.667 321.948 472.652 317.216C484.399 318.329 494.691 314.132 504.405 307.792C512.975 322.628 518.788 336.779 519.954 354.109C520.087 356.083 520.406 364.033 521.042 365.271L521.813 365.257C522.604 363.133 522.182 359.836 522.047 357.487C521.315 344.779 517.873 330.217 512.57 318.615C510.652 314.497 508.443 310.521 505.959 306.717Z"/><path fill="#F77618" d="M625.317 174.457L625.628 174.806C629.153 178.696 633.372 182.013 636.983 185.886C645.503 195.025 650.415 206.455 649.891 219.006C649.137 237.084 638.326 249.061 622.526 256.798C622.514 282.19 604.372 299.554 578.882 297.537C598.693 275.399 598.315 250.323 584.476 225.164C595.905 220.942 602.89 216.623 611.303 207.495C619.189 198.939 625.901 186.403 625.317 174.457Z"/><path fill="#F77618" d="M534.943 220.646L535.647 220.961C537.137 222.155 536.005 221.95 534.111 222.243C534.388 221.697 534.643 221.18 534.943 220.646Z"/><path fill="#F77618" d="M389.421 211.383C379.738 205.725 372.36 195.126 369.536 184.352C366.695 173.186 368.366 161.351 374.185 151.408C380.999 139.648 392.303 131.168 405.499 127.917C418.978 124.551 434.46 127.007 446.327 134.186C457.008 140.618 464.686 151.041 467.661 163.149C475.321 194.591 444.383 224.058 413.914 219.735C406.694 219.05 395.271 215.856 389.421 211.383Z"/><path fill="#DB4E0B" d="M389.421 211.383C396.743 210.183 408.993 213.719 413.748 219.536L413.914 219.735C406.694 219.05 395.271 215.856 389.421 211.383Z"/><path fill="#0A0706" d="M414.982 163.13C420.018 162.515 425.443 163.534 427.419 168.497C431.285 178.209 429.332 185.233 420.892 189.899C409.639 190.864 406.163 182.156 407.634 171.771C408.22 167.637 411.527 165.086 414.982 163.13Z"/><path fill="#F77618" d="M533.07 207.644C521.511 199.754 514.096 186.72 513.407 172.733C512.87 160.635 517.191 148.824 525.409 139.929C535.295 129.049 547.899 124.028 562.355 123.318C563.244 124.806 564.243 127.094 565.721 127.917C565.661 131.269 572.251 154.175 573.435 159.242C577.579 176.97 582.673 195.249 586.782 212.99C584.321 214.859 576.648 216.759 573.621 217.066C561.737 219.585 542.893 214.717 533.07 207.644Z"/><path fill="#DB4E0B" d="M533.07 207.644C546.323 203.965 558.323 208.764 568.495 216.719C569.399 217.427 572.289 217.018 573.621 217.066C561.737 219.585 542.893 214.717 533.07 207.644Z"/><path fill="#0A0706" d="M539.843 162.597C555.117 163.606 555.863 185.548 542.571 190.04C526.574 189.973 524.93 166.011 539.843 162.597Z"/><path fill="#F77618" d="M570.109 228.169C572.909 227.723 581.751 225.619 583.335 226.225C591.988 243.851 595.709 256.435 589.857 276.011C580.775 306.397 536.898 327.6 519.517 291.766C522.315 286.808 524.949 281.761 527.416 276.631C529.714 273.716 544.146 262.722 548.775 258.398C549.458 257.672 550.426 256.509 551.122 255.91L552.689 254.024C557.306 244.245 558.537 236.412 551.696 227.455C558.755 228.429 562.944 228.737 570.109 228.169Z"/><path fill="#DB4E0B" d="M551.696 227.455C558.755 228.429 562.944 228.737 570.109 228.169C567.549 238.378 563.036 249.347 552.689 254.024C557.306 244.245 558.537 236.412 551.696 227.455Z"/><path fill="#DB4E0B" d="M551.122 255.91C552.475 255.916 553.715 255.909 555.069 255.982C557.229 257.074 560.768 258.324 561.07 261.239C561.825 268.521 551.184 271.796 549.439 263.759C549.17 262.519 549.455 260.716 549.548 259.419L548.775 258.398C549.458 257.672 550.426 256.509 551.122 255.91Z"/><path fill="#F77618" d="M551.122 255.91C552.475 255.916 553.715 255.909 555.069 255.982L554.627 256.085C551.164 256.871 551.913 256.29 549.548 259.419L548.775 258.398C549.458 257.672 550.426 256.509 551.122 255.91Z"/><path fill="#DB4E0B" d="M569.963 273.29C572.067 272.529 574.418 272.96 576.115 274.419C577.812 275.879 578.59 278.139 578.153 280.333C577.715 282.528 576.129 284.316 574.002 285.013C570.783 286.067 567.313 284.343 566.21 281.14C565.106 277.937 566.777 274.442 569.963 273.29Z"/><path fill="#DB4E0B" d="M576.499 252.887C579.87 252.701 582.759 255.272 582.965 258.642C583.171 262.013 580.616 264.916 577.247 265.142C573.85 265.37 570.917 262.789 570.709 259.391C570.502 255.992 573.1 253.074 576.499 252.887Z"/><path fill="#DB4E0B" d="M551.37 273.431C553.314 272.631 555.539 272.938 557.193 274.236C558.847 275.534 559.674 277.622 559.359 279.7C559.043 281.779 557.633 283.527 555.668 284.276C552.686 285.412 549.345 283.941 548.169 280.974C546.993 278.007 548.42 274.647 551.37 273.431Z"/><path fill="#F77618" d="M562.355 123.318C573.387 123.358 582.792 125.07 592.198 131.252C601.417 137.31 609.225 144.758 612.802 155.46C616.702 167.837 616.442 178.922 610.702 190.877C607.252 198.06 596.281 209.715 588.986 212.133L588.399 211.589C587.297 205.533 584.042 194.514 582.464 188.149C577.883 169.465 573.123 150.826 568.184 132.235C567.703 130.259 567.057 129.33 565.721 127.917C564.243 127.094 563.244 124.806 562.355 123.318Z"/><path fill="white" d="M562.355 123.318C573.387 123.358 582.792 125.07 592.198 131.252C601.417 137.31 609.225 144.758 612.802 155.46C612.757 155.478 612.056 155.817 611.91 155.676C605.549 149.581 598.956 145.225 591.195 141.153C583.884 137.317 576.44 135.769 569.079 132.626L568.184 132.235C567.703 130.259 567.057 129.33 565.721 127.917C564.243 127.094 563.244 124.806 562.355 123.318Z"/></svg>