<svg width="510" height="361" viewBox="0 0 510 361" fill="none" xmlns="http://www.w3.org/2000/svg">
<path d="M196.107 0.412034C197.179 0.270034 198.256 0.166008 199.335 0.0980081C211.843 -0.690992 220.847 3.306 230.044 11.286C248.708 2.272 269.442 5.75002 279.301 25.233C298.899 32.121 307.602 48.371 299.459 68.696C297.322 74.029 293.183 77.86 288.747 81.36C290.065 88.557 289.828 92.895 288.389 100.119L289.5 99.902C317.08 94.374 358.215 97.639 385.21 105.09C391.11 106.719 398.564 110.882 403.799 114.028C427.613 112.856 444.93 113.219 438.204 143.503C452.109 149.162 466.766 160.69 475.822 172.808C477.784 175.432 479.814 181.165 481.844 183.821C486.234 189.565 490.667 194.407 494.413 200.685C501.694 212.885 503.422 225.319 506.101 238.973C507.458 245.892 509.083 252.133 509.292 259.304C509.451 263.771 508.944 268.236 507.786 272.553C504.184 286.219 501.279 286.626 496.096 297.189C489.352 312.401 482.712 326.587 467.093 334.772C455.272 340.966 439.449 345.337 426.954 350.9C415.594 355.958 397.515 355.618 385.705 352.65C377.138 350.497 371.376 344.002 362.438 344.23C341.191 343.508 317.265 345.575 296.387 342.801C291.379 342.135 287 334.868 284.657 330.743C269.723 345.37 252.663 351.532 232.561 350.737C230.843 350.669 229.898 352.287 228.725 353.536C216.71 364.45 192.953 363.281 183.461 349.428C176.776 350.731 167.171 351.775 160.21 351.78C139.166 351.797 117.551 353.098 96.5851 351.59C94.0431 351.407 90.3441 348.35 88.3581 346.718C83.3701 346.302 75.6751 346.64 70.4601 346.673L36.3691 346.856C30.2641 346.882 23.7931 347.147 17.7951 346.4C-4.11292 343.685 -3.95192 317.827 8.32608 304.499C20.3121 291.489 31.9761 291.233 48.4841 290.173C39.3541 277.039 36.5021 269.446 35.8961 253.638C35.8221 251.703 33.6421 247.99 33.1681 245.809C31.6341 238.743 31.8651 230.963 34.6651 224.221C38.8001 214.828 44.5831 210.853 53.4601 207.175C50.6861 194.969 43.174 148.189 52.597 138.246C62.542 127.752 97.4551 160.113 105.62 169.013C114.673 168.067 120.401 168.349 129.479 168.665C133.481 156.173 137.652 153.604 149.307 149.206C146.95 146.126 144.874 143.747 145.038 139.555C145.289 133.115 151.882 129.815 157.73 130.625C163.362 131.405 165.637 133.744 168.991 137.908C175.265 132.058 176.896 130.689 185.179 128.415C182.88 125.732 178.067 121.534 175.211 118.609C158.547 120.286 144.214 117.687 137.08 99.661C133.146 89.72 136.619 80.179 141.147 71.012C136.16 64.567 133.385 59.8 133.304 51.259C133.3 42.784 136.713 34.666 142.77 28.739C149.474 22.102 157.566 19.275 166.868 19.259C174.28 7.90502 183.087 2.80803 196.107 0.412034Z" fill="#010101"/>
<path d="M288.11 102.161C300.445 99.654 330.864 97.101 342.731 99.494C365.803 102.227 383.324 103.371 403.685 115.771L410.426 115.581C421.631 114.293 437.753 115.67 438.15 129.792C438.546 143.909 429.276 167.942 420.729 178.492C408.146 172.55 395.921 165.355 381.923 170.725C375.422 173.219 373.483 175.819 368.185 179.418C348.594 180.786 341.707 186.653 337.071 205.468C334.148 208.327 331.136 210.489 328.379 213.494C321.089 225.108 323.911 225.869 322.448 238.741C322.288 240.15 319.875 244.98 319.288 248.714L316.378 250.907C315.493 250.733 315.796 250.96 315.362 250.398C315.452 241.479 313.382 219.854 307.695 213.273C307.183 215.037 308.516 218.878 309.107 220.681C312.506 231.051 313.485 241.913 313.397 252.811C312.696 263.528 310.122 283.45 302.445 292.453C301.953 293.03 298.215 295.338 297.099 296.245C290.088 301.835 285.589 309.986 284.595 318.898C284.229 322.144 284.3 325.271 284.454 328.522C283.307 329.624 281.517 331.457 280.327 332.381C265.426 344.68 251.84 349.641 232.297 348.944C236.832 333.178 235.051 319.313 231.945 303.557C228.583 288.573 220.904 272.372 207.797 263.593C221.965 251.54 230.024 243.91 247.819 235.996C247.991 218.479 247.094 205.843 239.88 189.5C230.965 169.3 220.245 154.248 199.433 145.953C196.288 139.458 195.645 137.112 190.735 131.821C194.762 133.444 199.092 134.162 203.287 135.578C206.427 135.923 209.592 135.988 212.745 135.773C226.563 134.729 233.856 128.605 242.38 118.737C252.587 122.245 259.009 123.02 269.398 119.504C279.303 115.82 283.174 111.135 288.11 102.161Z" fill="#1A4D90"/>
<path d="M313.397 252.811C302.906 257.713 292.625 258.197 282.318 252.409C274.014 247.781 267.936 239.988 265.469 230.807C253.924 187.537 318.252 170.38 328.379 213.494C321.089 225.108 323.911 225.869 322.448 238.741C322.288 240.15 319.875 244.98 319.288 248.714L316.378 250.907C315.493 250.733 315.796 250.96 315.362 250.398C315.452 241.479 313.382 219.854 307.695 213.273C307.183 215.037 308.516 218.878 309.107 220.681C312.506 231.051 313.485 241.913 313.397 252.811Z" fill="#FEFEFD"/>
<path d="M410.426 115.581C411.805 117.795 408.411 123.473 407.198 125.748C403.047 133.524 395.33 139.191 386.925 141.591C377.381 144.364 367.119 143.12 358.513 138.148C346.567 131.302 336.721 115.488 340.782 100.108C340.912 99.617 342.197 99.586 342.731 99.494C365.803 102.227 383.324 103.371 403.685 115.771L410.426 115.581Z" fill="#FEFEFD"/>
<path d="M231.945 303.557C240.712 299.597 249.718 298.484 258.911 301.93C267.054 305.069 273.634 311.286 277.229 319.238C279.337 323.985 279.713 327.249 280.327 332.381C265.426 344.68 251.84 349.641 232.297 348.944C236.832 333.178 235.051 319.313 231.945 303.557Z" fill="#FEFEFD"/>
<path d="M242.38 118.737C252.587 122.245 259.009 123.02 269.398 119.504C270.503 125.735 267.539 133.56 263.986 138.687C258.66 146.501 250.421 151.852 241.115 153.539C231.636 155.233 221.85 153.482 213.977 147.808C209.555 144.571 205.904 140.394 203.287 135.578C206.427 135.923 209.592 135.988 212.745 135.773C226.563 134.729 233.856 128.605 242.38 118.737Z" fill="#FEFEFD"/>
<path d="M438.534 145.632C453.239 152.728 463.906 160.216 473.828 173.765C476.713 177.704 479.374 183.65 482.113 187.153C489.395 196.465 494.974 203.394 498.986 214.9C501.559 221.573 502.447 229.573 504.001 236.407C507.452 251.585 510.632 268.481 502.3 282.877C496.505 292.888 491.671 302.121 486.857 312.783C481.432 324.799 466.554 334.609 454.07 338.806C450.037 340.121 445.968 341.322 441.869 342.41C416.915 354.596 397.159 358.877 372.178 344.859C368.631 342.868 361.912 341.973 359.245 339.696C349.334 331.234 347.225 326.753 333.619 323.989C345.339 311.205 354.836 312.496 368.015 305.569C378.215 300.208 378.27 293.821 393.202 290.786C401.471 289.624 404.986 289.903 413.317 290.256C425.1 281.389 430.595 279.494 443.679 275.08C449.938 272.969 466.104 244.771 464.84 237.331L464.028 236.929C463.013 237.665 458.724 250.467 457.32 253.136C453.849 259.737 449.935 265.554 445.076 271.268C442.232 274.455 432.577 275.779 427.314 278.631C420.8 282.16 418.439 283.481 412.412 288.124C401.471 287.512 394.173 288.852 383.494 289.687C377.193 290.18 366.307 286.19 359.758 285.841C353.639 285.049 346.3 285.515 340.323 285.085C332.458 284.52 328.135 285.596 327.832 276.311C326.428 269.348 322.601 264.993 321.039 257.744C319.278 249.573 324.351 243.409 324.69 237.192C325.575 220.961 324.398 217.928 339.252 207.349C343.158 186.537 350.947 183.942 369.645 181.73C390.979 163.03 400.078 172.995 421.84 181.476C429.359 170.54 434.642 158.28 438.534 145.632Z" fill="#ECAD47"/>
<path d="M333.619 323.989C345.339 311.205 354.836 312.496 368.015 305.569C378.215 300.208 378.27 293.821 393.202 290.786C392.602 292.791 391.454 294.664 390.682 296.648C388.657 301.855 390.486 307.513 392.728 312.336C398.273 324.511 405.87 330.051 418.032 334.701C423.129 336.65 438.433 340.107 441.869 342.41C416.915 354.596 397.159 358.877 372.178 344.859C368.631 342.868 361.912 341.973 359.245 339.696C349.334 331.234 347.225 326.753 333.619 323.989Z" fill="#FEFEFD"/>
<path d="M197.187 1.91803C198.399 1.79903 199.615 1.71601 200.832 1.66601C212.786 1.25501 221.312 5.49004 229.92 13.558C250.265 3.41004 266.009 6.52805 278.211 26.404C300.313 34.855 309.746 55.4 292.912 75.717C291.536 77.377 288.359 79.416 286.558 81.03C293.897 109.987 266.777 128.196 241.5 115.731C239.101 119.538 237.603 121.499 234.482 124.675C232.946 126.057 231.279 127.286 229.504 128.343C212.457 138.643 186.748 134.111 176.351 116.519C166.582 117.365 160.71 119.099 151.244 113.891C144.771 110.369 140.035 104.337 138.149 97.213C135.508 87.18 138.518 79.937 143.53 71.684C137.429 64.969 134.153 57.581 135.248 48.27C137.037 33.047 151.149 19.175 167.027 21.13C167.55 20.346 168.089 19.573 168.644 18.811C176.314 8.27703 184.428 3.90803 197.187 1.91803Z" fill="#FEFEFD"/>
<path d="M175.842 71.769C180.932 71.702 186.087 71.573 191.173 71.658C193.785 71.702 197.261 71.521 197.828 74.517C196.592 78.329 187.004 88.735 183.799 92.784C188.279 92.81 196.938 91.522 200.018 93.69C200.685 95.066 200.361 96.056 200.155 97.602C192.034 97.824 183.91 97.969 175.785 98.035L175.942 91.853C180.826 86.75 185.221 82.069 189.838 76.735C184.964 76.681 180.349 77.904 176.447 76.034C175.391 74.202 175.787 74.273 175.842 71.769Z" fill="#010101"/>
<path d="M237.82 31.322C242.172 31.249 256.304 29.71 258.407 33.306C258.033 36.268 247.677 46.611 244.701 50.315C249.716 50.368 253.992 48.96 257.871 50.334C259.166 52.031 258.711 52.066 258.793 54.729C253.465 54.801 248.054 54.888 242.721 54.873C240.333 54.866 237.995 54.872 236.802 52.648C237.4 49.466 247.491 39.266 250.472 35.882C246.159 35.813 242.023 37.073 238.607 35.511C237.435 33.73 237.846 33.884 237.82 31.322Z" fill="#010101"/>
<path d="M208.664 56.452C212.972 56.411 226.668 55.057 228.365 58.922C227.717 62.281 217.411 72.022 214.417 75.091C218.525 75.144 225.316 74.043 228.457 76.015C229.177 77.325 228.905 77.917 228.655 79.408C226.026 79.829 211.032 80.854 208.765 78.877C208.14 78.331 208.294 77.983 208.136 77.021C209.396 72.678 216.686 65.963 220.028 61.464L220.512 60.806C216.894 60.679 209.977 62.054 207.813 59.419C207.833 57.745 207.75 57.833 208.664 56.452Z" fill="#010101"/>
<path d="M151.216 172.877C154.184 167.564 156.281 161.43 159.177 156.244C197.072 88.384 205.604 179.825 209.756 207.738C210.306 211.439 217.5 228.469 219.193 233.783L214.866 231.803C204.655 233.296 189.06 237.956 178.645 240.665C177.576 234.604 176.166 229.348 172.854 224.11C168.01 216.481 160.289 211.135 151.444 209.285C130.808 204.828 113.803 217.244 109.58 237.535C105.771 237.023 103.508 236.873 99.658 236.776C98.351 227.678 95.504 219.002 88.529 212.738C79.044 204.218 71.385 203.375 59.398 203.82C62.453 198.732 64.86 195.49 69.001 191.133C70.638 189.411 73.965 186.239 75.242 184.505L74.7 182.995C69.791 185.518 64.208 193.315 60.775 197.8C59.074 200.666 57.552 202.818 55.622 205.525C51.288 193.739 50.381 177.388 50.207 165.466C49.85 140.942 51.219 129.013 76.549 146.508C87.584 154.13 93.52 159.559 102.743 169.004C99.727 169.508 94.476 169.879 92.586 172.079C93.51 173.585 95.523 172.876 97.768 172.328C111.224 169.043 137.935 168.754 151.216 172.877Z" fill="#ECAD47"/>
<path d="M60.7751 197.8C58.4191 191.126 52.91 155.467 58.407 151.265L59.68 151.445C65.006 154.977 76.777 179.468 74.7 182.995C69.791 185.518 64.2081 193.315 60.7751 197.8Z" fill="#FEFEFD"/>
<path d="M181.793 147.271C185.012 147.215 184.913 147.392 187.136 149.57C192.919 155.236 198.164 194.135 193.544 197.698C191.411 197.13 185.904 192.234 184 190.655C177.372 185.145 171.46 181.749 163.905 177.917C166.138 168.813 173.587 152.653 181.793 147.271Z" fill="#FEFEFD"/>
<path d="M163.497 288.556C166.275 288.29 169.401 288.154 172.214 287.968C186.397 304.286 191.849 323.934 190.761 345.167C170.657 351.023 149.77 351.317 128.876 350.464C122.058 343.146 120.85 332.52 126.117 323.891C127.56 321.527 129.363 319.5 130.582 317.002C126.986 316.706 122.193 325.839 121.491 328.981C119.599 337.438 121.825 343.431 126.026 350.502L115.295 350.677C110.567 350.672 106.207 350.723 101.482 350.283C87.0839 335.146 101.793 318.468 98.8929 316.059C96.9419 317.68 94.2919 323.998 93.8879 326.58C92.3019 336.714 92.8219 341.978 98.4539 350.468C90.0509 347.11 84.0649 341.892 83.4399 332.373C80.7869 292.007 135.736 290.523 163.497 288.556Z" fill="#FEFEFD"/>
<path d="M195.037 263.874C195.754 263.819 196.472 263.778 197.19 263.751C222.154 262.917 233.19 308.491 233.084 327.776C232.954 351.353 228.106 359.366 203.371 358.823C198.145 358.292 194.681 357.021 190.431 354.009C198.385 329.198 187.878 305.628 173.337 285.765C171.618 285.822 169.687 286.086 168.199 285.374C164.935 278.602 176.69 270.104 182.175 268.065C186.89 266.311 189.961 264.748 195.037 263.874Z" fill="#FEFEFD"/>
<path d="M64.1981 205.481C84.5851 206.231 96.2791 218.653 97.3681 238.752C102.815 238.746 105.619 239.225 110.953 240.051C111.955 233.862 114.127 228.048 117.909 223.008C122.912 216.319 130.391 211.918 138.668 210.793C155.167 208.553 170.561 217.796 175.305 233.979C176.179 236.958 176.533 239.84 176.951 242.911C189.426 240.099 202.057 236.453 214.696 233.512C215.826 234.162 216.942 234.834 218.044 235.529C219.338 236.362 219.825 236.869 220.159 238.386L219.473 238.889C217.442 238.724 216.232 237.614 214.492 236.445C205.749 237.671 185.991 243.457 176.62 245.873C175.209 255.708 172.588 261.418 165.377 268.143C159.85 272.445 154.937 275.041 147.845 275.856C139.237 276.924 130.565 274.447 123.821 268.992C115.445 262.198 111.809 253.531 110.737 243.056C105.185 241.709 102.899 241.625 97.2521 241.429C93.1441 266.488 62.8221 281.056 45.3911 261.385C52.7531 264.402 56.1381 266.849 64.5421 267.184C80.8431 267.835 94.3041 253.932 94.3571 237.747C94.4441 229.94 91.3741 222.428 85.8421 216.918C76.8471 207.901 68.8352 208.076 57.2982 208.019L56.9261 207.478L57.5501 206.761C60.3821 205.636 61.2131 205.668 64.1981 205.481Z" fill="#FEFEFD"/>
<path d="M139.286 213.584C155.691 211.064 171.016 222.368 173.452 238.786C175.888 255.203 164.506 270.471 148.076 272.823C131.765 275.159 116.631 263.876 114.212 247.577C111.794 231.277 122.999 216.086 139.286 213.584Z" fill="#010101"/>
<path d="M136.924 215.84C145.75 214.483 153.288 215.554 160.585 221.003C166.575 225.433 170.556 232.066 171.648 239.436C171.937 241.494 172.01 245.603 171.66 247.653C169.874 255.898 166.288 262.219 158.975 266.993C152.962 270.953 145.624 272.368 138.568 270.928C134.926 270.154 131.473 268.664 128.41 266.545C114.919 256.779 112.9 241.951 120.474 227.662C124.865 221.088 129.514 218.179 136.924 215.84Z" fill="#ECAD47"/>
<path d="M128.41 266.545C135.628 262.538 164.121 247.471 171.022 246.981L171.66 247.653C169.874 255.898 166.288 262.219 158.975 266.993C152.962 270.953 145.624 272.368 138.568 270.928C134.926 270.154 131.473 268.664 128.41 266.545Z" fill="#FEFEFD"/>
<path d="M136.924 215.84C153.943 224.489 127.73 241.359 120.474 227.662C124.865 221.088 129.514 218.179 136.924 215.84Z" fill="#FEFEFD"/>
<path d="M143.686 235.928C146.762 235.843 152.197 236.318 153.497 239.577C156.075 246.037 137.533 253.152 133.222 255.314C116.78 261.059 123.042 239.901 143.686 235.928Z" fill="#010101"/>
<path d="M98.971 243.72C102.977 243.729 104.686 243.855 108.649 244.437C111.09 256.102 112.988 261.782 121.777 270.1C123.628 271.361 125.629 272.729 127.585 273.792C145.233 283.387 168.267 275.59 175.75 256.759C177.097 253.37 177.606 251.145 178.286 247.547L192.284 243.799C197.884 246.726 203.545 256.016 201.402 261.977C187.707 261.164 166.22 269.528 165.77 285.504L165.752 286.399C143.392 288.119 108.19 289.203 91.5469 305.388C90.1579 306.737 89.455 307.951 87.853 308.253C85.105 306.198 85.8559 300.572 85.9409 297.332C121.603 297.166 116.379 272.592 83.853 276.25C61.858 278.723 61.977 293.094 83.801 297.117L83.9899 307.609L83.3259 308.07C80.8759 309.753 72.5569 313.528 72.1749 314.552C77.2069 315.622 82.6139 309.398 86.7029 310.103C86.8019 311.623 85.233 313.267 84.463 314.889C82.981 318.012 82.3149 321.023 81.5529 324.365C71.5709 321.397 62.831 317.074 57.655 307.59C49.58 292.793 58.154 274.123 74.738 270.887C76.529 269.89 79.0489 268.912 81.0079 267.834C91.7029 261.945 95.617 254.926 98.971 243.72Z" fill="#FEFEFD"/>
<path d="M98.971 243.72C102.977 243.729 104.686 243.855 108.649 244.437C111.09 256.102 112.988 261.782 121.777 270.1C106.667 276.863 106.859 272.556 91.255 270.716C85.558 270.044 80.177 270.754 74.738 270.887C76.529 269.89 79.049 268.912 81.008 267.834C91.703 261.945 95.617 254.926 98.971 243.72Z" fill="#ECAD47"/>
<path d="M40.5779 292.512C44.8699 292.186 48.4029 292.12 52.7179 292.102C51.9899 311.944 64.0019 321.291 81.4769 326.58C81.2319 334.378 81.8229 338.211 86.1519 344.794C76.9389 345.805 60.132 345.251 50.41 345.186C38.9679 326.369 52.4759 317.685 51.0109 313.978C45.2899 315.236 42.6959 330.726 43.9479 335.756C44.5239 338.067 46.3779 342.284 47.3129 344.586L47.0799 345.126L44.9579 345.276C38.7419 345.197 27.6449 347.125 22.7539 342.89C17.5339 338.372 18.0519 327.989 19.5029 321.806C19.9419 319.938 23.9059 312.481 22.0889 310.97C19.9469 312.548 17.8849 318.984 17.2629 321.696C15.0139 331.509 16.8569 337.516 21.8569 345.66C-1.19509 342.02 -3.99208 322.401 9.30592 306.001C17.1899 296.278 28.4809 293.475 40.5779 292.512Z" fill="#FEFEFD"/>
<path d="M329.201 286.876C333.861 285.875 351.781 287.366 357.293 287.9C364.812 288.628 374.812 290.787 382.522 292.06C372.021 298.862 368.452 305.486 355.025 308.602C346.263 310.636 337.269 317.08 330.874 323.441C328.892 331.755 329.644 335.235 333.241 342.684C324.378 342.8 316.008 342.514 307.165 342.206L304.708 337.998C299.5 323.506 303.673 318.744 308.929 306.222C300.211 313.055 299.175 322.803 301.304 333.13C301.912 336.078 303.585 338.812 303.812 341.859C302.972 342.373 303.158 342.515 302.053 342.363C290.787 340.928 284.452 330.876 285.915 320.241C288.147 304.01 302.64 291.01 318.753 289.678C321.506 289.45 326.374 289.019 328.472 287.564C328.715 287.335 328.958 287.105 329.201 286.876Z" fill="#FEFEFD"/>
<path d="M200.075 148.629C224.796 156.956 241.538 190.821 245.129 214.991C246.073 221.341 245.872 228.526 245.775 234.968C243.222 236.141 240.509 237.537 237.975 238.787C233.213 241.496 229.823 243.571 225.245 246.657C221.937 232.235 216.122 219.86 211.422 206.029C210.292 202.703 210.049 192.806 209.433 188.609C207.476 175.037 204.345 161.66 200.075 148.629Z" fill="#FEFEFD"/>
<path d="M56.4351 209.94C65.2171 209.651 71.5661 209.559 79.2911 214.358C84.9461 217.783 88.1131 221.571 90.4871 227.863C92.9901 235.247 93.237 241.66 89.709 248.915C86.385 255.658 80.783 261.007 73.894 264.016C62.914 267.943 44.9261 262.693 38.4341 252.995C39.5061 248.266 40.2211 246.176 42.7271 242.084C48.3521 232.748 51.5001 220.226 56.4351 209.94Z" fill="#ECAD47"/>
<path d="M42.7271 242.084C50.2001 246.676 67.051 258.108 73.894 264.016C62.914 267.943 44.9261 262.693 38.4341 252.995C39.5061 248.266 40.2211 246.176 42.7271 242.084Z" fill="#FEFEFD"/>
<path d="M79.291 214.358C84.946 217.783 88.113 221.571 90.487 227.863C75.987 241.688 59.161 216.217 79.291 214.358Z" fill="#FEFEFD"/>
<path d="M61.6011 234.823C70.4231 234.181 78.6381 238.152 83.7811 245.316C86.8311 249.564 84.995 252.995 81.149 255.606C75.829 254.869 66.3841 248.083 61.9101 244.702C57.8841 241.659 56.9941 237.919 61.6011 234.823Z" fill="#010101"/>
<path d="M192.284 243.799C199.479 241.849 206.844 239.904 214.172 238.51C217.013 239.922 219.286 241.161 222.029 242.756C222.446 244.467 222.944 246.33 223.303 248.037C215.906 253.126 211.85 256.786 205.589 263.063L201.402 261.977C203.545 256.016 197.884 246.726 192.284 243.799Z" fill="#ECAD47"/>
<path d="M315.362 250.398C315.796 250.96 315.493 250.733 316.378 250.907L319.288 248.714C318.15 261.68 320.438 263.337 325.075 275.051C325.735 276.717 326.596 284.058 327.015 286.534C319.188 287.846 314.205 288.146 306.692 290.799C311.229 280 316.414 262.197 315.362 250.398Z" fill="#1A4D90"/>
<path d="M37.8581 256.599C48.8561 267.036 48.4911 270.352 65.2171 272.229C60.9911 275.372 59.4941 277.228 56.4911 281.518C54.9811 283.98 53.7681 288.224 52.5381 289.672C49.5871 289.597 48.5631 287.521 47.1341 285.161C41.6671 276.123 37.6461 267.266 37.8581 256.599Z" fill="#FEFEFD"/>
<path d="M53.0189 209.211L53.716 209.567C53.678 211.766 51.958 214.474 51.391 216.614C48.415 227.848 41.102 238.367 37.168 248.706L36.38 248.869C29.651 231.994 36.9819 216.816 53.0189 209.211Z" fill="#FEFEFD"/>
<path d="M332.464 325.785C347.606 328.808 347.982 332.803 359.474 342.656C353.284 342.687 347.08 342.984 340.897 342.905C331.302 342.784 331.859 332.604 332.464 325.785Z" fill="#FEFEFD"/>
<path d="M154.385 132.407C167.642 132.723 171.423 143.756 158.49 147.403C153.57 147.721 147.442 146.343 146.407 140.638C146.112 139.067 146.47 137.443 147.396 136.14C149.134 133.707 151.627 132.972 154.385 132.407Z" fill="#FEFEFD"/>
<path d="M142.298 154.322C149.994 153.922 156.551 160.147 146.457 164.094C142.382 164.425 139.351 164.174 137.263 160.317C136.872 156.722 139.375 155.529 142.298 154.322Z" fill="#FEFEFD"/>
<path d="M134.962 162.05C140.894 167.777 145.064 167.227 152.189 164.126C152.341 165.524 151.351 167.14 150.709 168.624L150.358 169.7C148.555 170.649 134.102 168.069 131.279 167.604C132.422 165.592 133.636 163.935 134.962 162.05Z" fill="#FEFEFD"/>
<path d="M159.931 149.531L160.187 149.629C160.397 150.274 155.975 158.519 155.271 160.008C154.329 160.344 154.708 160.358 154.169 160.287C153.668 158.757 153.152 157.233 152.62 155.714C150.44 153.531 147.244 152.764 146.499 151.755C149.123 149.82 156.402 149.721 159.931 149.531Z" fill="#FEFEFD"/>
<path d="M189.278 347.783L189.865 348.336C189.908 350.207 189.986 350.157 189.134 351.937L188.33 351.882C187.198 350.9 186.84 350.733 186.113 349.414C187.03 348.16 187.453 348.388 189.278 347.783Z" fill="#FEFEFD"/>
</svg>
